<svg width="120" height="120" viewBox="0 0 120 120" fill="none" xmlns="http://www.w3.org/2000/svg">
<g clip-path="url(#clip0_129_454)">
<g clip-path="url(#clip1_129_454)">
<circle cx="60" cy="61" r="50" fill="#362B67"/>
<path d="M60 0C26.8664 0 0 26.8623 0 60C0 93.1377 26.8637 120 60 120C93.1389 120 120 93.1377 120 60C120 26.8623 93.1389 0 60 0ZM60 17.9407C70.9637 17.9407 79.848 26.828 79.848 37.787C79.848 48.7485 70.9637 57.6332 60 57.6332C49.0416 57.6332 40.1573 48.7485 40.1573 37.787C40.1573 26.828 49.0416 17.9407 60 17.9407ZM59.9868 104.313C49.0521 104.313 39.0372 100.33 31.3125 93.7386C29.4307 92.1335 28.3449 89.7799 28.3449 87.3103C28.3449 76.1959 37.3399 67.3007 48.4565 67.3007H71.5488C82.668 67.3007 91.6287 76.1959 91.6287 87.3103C91.6287 89.7826 90.5482 92.1309 88.6638 93.736C80.9417 100.33 70.9242 104.313 59.9868 104.313Z" fill="#C4C6FA"/>
</g>
</g>
<defs>
<clipPath id="clip0_129_454">
<rect width="120" height="120" rx="60" fill="white"/>
</clipPath>
<clipPath id="clip1_129_454">
<rect width="120" height="120" fill="white"/>
</clipPath>
</defs>
</svg>
