<svg width="62" height="78" viewBox="0 0 62 78" fill="none" xmlns="http://www.w3.org/2000/svg">
<g clip-path="url(#clip0_35_2225)">
<path d="M22.2245 30.4061V25.7645C22.2245 23.4268 24.1061 21.5433 26.4413 21.5433H35.547C37.8822 21.5433 39.7638 23.4268 39.7638 25.7645V30.4061H43.9302V25.7645C43.9302 21.1397 40.167 17.3726 35.547 17.3726H26.4413C21.8213 17.3726 18.0581 21.1397 18.0581 25.7645V30.4061H22.2245Z" fill="url(#paint0_linear_35_2225)"/>
<path d="M45.8287 63.1561C54.7599 54.958 55.361 41.0645 47.1713 32.124C38.9817 23.1836 25.1025 22.5819 16.1713 30.78C7.24015 38.9781 6.63902 52.8717 14.8287 61.8121C23.0183 70.7525 36.8975 71.3542 45.8287 63.1561Z" fill="url(#paint1_linear_35_2225)"/>
<path d="M45.0625 62.3546C53.5423 54.5708 54.1131 41.3793 46.3373 32.8907C38.5615 24.4021 25.3837 23.8308 16.9039 31.6146C8.42407 39.3985 7.85332 52.5899 15.6291 61.0785C23.4049 69.5671 36.5827 70.1384 45.0625 62.3546Z" fill="url(#paint2_linear_35_2225)"/>
<path d="M42.993 60.0622C50.219 53.4246 50.7016 42.1798 44.0709 34.9463C37.4401 27.7128 26.207 27.2297 18.9809 33.8673C11.7548 40.5049 11.2723 51.7497 17.903 58.9832C24.5338 66.2168 35.7669 66.6999 42.993 60.0622Z" fill="url(#paint3_linear_35_2225)"/>
<g style="mix-blend-mode:overlay" opacity="0.45">
<path d="M14.3957 48.1486C14.3957 38.3272 22.3422 30.3725 32.1534 30.3725C36.7566 30.3725 40.9398 32.1384 44.0982 35.0141C40.8558 31.4488 36.1854 29.1953 30.9774 29.1953C21.1661 29.1953 13.2197 37.15 13.2197 46.9713C13.2197 52.1848 15.4709 56.86 19.0325 60.1058C16.1597 56.9441 14.3957 52.7565 14.3957 48.1486Z" fill="white"/>
</g>
<g style="mix-blend-mode:multiply" opacity="0.67">
<path d="M42.2499 33.2148C44.7699 36.2756 47.1051 41.0349 47.1051 45.3234C47.1051 55.1448 39.1587 63.0994 29.3475 63.0994C25.0803 63.0994 20.3259 60.745 17.2515 58.2392C20.5107 62.2249 25.4499 64.7644 30.9939 64.7644C40.8051 64.7644 48.7516 56.8097 48.7516 46.9883C48.7516 41.4386 46.2148 36.4942 42.2331 33.2317L42.2499 33.2148Z" fill="#F44B16"/>
</g>
<path d="M33.3462 0L25.4334 21.4759C25.0134 22.6026 25.8534 23.7799 27.0462 23.7799H28.6926L37.4622 0H33.363H33.3462Z" fill="#2D2066"/>
<path d="M37.462 0L28.6924 23.7799H32.7916L41.5612 0H37.462Z" fill="#2D2066"/>
<path d="M41.5614 0L34.8582 18.1628L32.8086 23.7462V23.7799H35.715C36.1182 23.7799 36.4878 23.6453 36.7902 23.3931C37.0254 23.2081 37.2102 22.9726 37.3278 22.6699L45.6774 0.016821H41.5614V0Z" fill="#2D2066"/>
<path style="mix-blend-mode:multiply" opacity="0.69" d="M39.4777 16.7839L37.3105 22.6532C37.1929 22.9559 37.0081 23.1914 36.7729 23.3764C36.4705 23.6286 36.1009 23.7631 35.6977 23.7631H27.0289C25.8361 23.7631 25.0129 22.5691 25.4161 21.4592L33.3121 0.0673828L39.4777 16.7671V16.7839Z" fill="url(#paint4_linear_35_2225)"/>
<path d="M28.1549 0H24.0557L32.8085 23.7462V23.7799H35.7149C36.1181 23.7799 36.4877 23.6453 36.7901 23.3931L34.8581 18.1796L28.1549 0.016821V0Z" fill="#4C3E8C"/>
<path d="M19.9395 0L28.7091 23.7799H32.8251L24.0555 0H19.9395Z" fill="#4C3E8C"/>
<path d="M15.8403 0L24.19 22.6531C24.442 23.3258 25.0804 23.7799 25.8028 23.7799H28.7092L19.9395 0H15.8403Z" fill="#4C3E8C"/>
</g>
<defs>
<linearGradient id="paint0_linear_35_2225" x1="18.0581" y1="23.8809" x2="43.9302" y2="23.8809" gradientUnits="userSpaceOnUse">
<stop stop-color="#F78614"/>
<stop offset="1" stop-color="#FFBE06"/>
</linearGradient>
<linearGradient id="paint1_linear_35_2225" x1="41.4056" y1="57.371" x2="18.3826" y2="34.3717" gradientUnits="userSpaceOnUse">
<stop stop-color="#F78614"/>
<stop offset="1" stop-color="#FFBE06"/>
</linearGradient>
<linearGradient id="paint2_linear_35_2225" x1="19.0067" y1="34.9585" x2="46.8732" y2="62.7962" gradientUnits="userSpaceOnUse">
<stop stop-color="#F78614"/>
<stop offset="1" stop-color="#FFBE06"/>
</linearGradient>
<linearGradient id="paint3_linear_35_2225" x1="52.5669" y1="68.5848" x2="9.58157" y2="25.6439" gradientUnits="userSpaceOnUse">
<stop stop-color="#F78614"/>
<stop offset="1" stop-color="#FFBE06"/>
</linearGradient>
<linearGradient id="paint4_linear_35_2225" x1="35.9665" y1="11.3182" x2="31.8489" y2="13.3162" gradientUnits="userSpaceOnUse">
<stop stop-color="white"/>
<stop offset="1" stop-color="#121E3D"/>
</linearGradient>
<clipPath id="clip0_35_2225">
<rect width="62" height="78" fill="white"/>
</clipPath>
</defs>
</svg>
