<svg width="24" height="24" viewBox="0 0 24 24" fill="none" xmlns="http://www.w3.org/2000/svg">
<path d="M21.4152 3.70503C21.0152 3.28003 20.4478 3.03501 19.8628 3.03501H18.0003C18.0078 2.7 18.0128 2.35503 18.0128 2H6.00025C6.00025 2.35498 6.00523 2.7 6.01275 3.03501H4.13775C3.55274 3.03501 2.98526 3.28003 2.58526 3.70503C2.18023 4.13257 1.97027 4.71753 2.00523 5.31006C2.34024 10.8951 5.22276 14.4001 9.79273 14.9201L8.90772 18.0001C7.85523 18.0001 7.00274 18.8525 7.00274 19.905V22.0001H17.0128V19.905C17.0128 18.8525 16.1603 18.0001 15.1078 18.0001L14.2228 14.9201C18.7828 14.3951 21.6628 10.8926 21.9953 5.31006C22.0302 4.72007 21.8203 4.13506 21.4152 3.70503ZM4.00274 5.19004C4.00025 5.13506 4.02276 5.09756 4.04273 5.07754C4.08023 5.03755 4.12525 5.03755 4.13775 5.03755H6.10777C6.40528 8.97007 7.27276 11.2001 8.11529 12.4601C4.90777 11.115 4.14273 7.52256 4.00274 5.19004ZM15.8978 12.4525C16.7402 11.19 17.6053 8.96255 17.9027 5.03506H19.8652C19.8802 5.03506 19.9228 5.03506 19.9603 5.07505C19.9803 5.09507 20.0027 5.13257 20.0003 5.18755C19.8578 7.52007 19.0953 11.1025 15.8978 12.4525Z" fill="#C56A1D"/>
</svg>
