<svg width="20" height="20" viewBox="0 0 20 20" fill="none" xmlns="http://www.w3.org/2000/svg">
<g clip-path="url(#clip0_33_1329)">
<path d="M19.4152 1.70503C19.0152 1.28003 18.4478 1.03501 17.8627 1.03501H16.0002C16.0078 0.7 16.0127 0.355029 16.0127 0H4.00025C4.00025 0.35498 4.00523 0.7 4.01275 1.03501H2.13775C1.55274 1.03501 0.985255 1.28003 0.585255 1.70503C0.180226 2.13257 -0.0297349 2.71753 0.005226 3.31006C0.340236 8.89507 3.22275 12.4 7.79273 12.9201L6.90772 16C5.85523 16 5.00274 16.8525 5.00274 17.905V20H15.0127V17.905C15.0127 16.8525 14.1603 16 13.1078 16L12.2228 12.9201C16.7828 12.3951 19.6627 8.89258 19.9953 3.31006C20.0302 2.72007 19.8203 2.13506 19.4152 1.70503ZM2.00274 3.19004C2.00025 3.13506 2.02276 3.09756 2.04273 3.07754C2.08023 3.03755 2.12525 3.03755 2.13775 3.03755H4.10777C4.40527 6.97007 5.27276 9.20005 6.11528 10.4601C2.90776 9.11504 2.14273 5.52256 2.00274 3.19004ZM13.8978 10.4525C14.7402 9.19004 15.6053 6.96255 15.9027 3.03506H17.8652C17.8802 3.03506 17.9228 3.03506 17.9603 3.07505C17.9803 3.09507 18.0027 3.13257 18.0002 3.18755C17.8578 5.52007 17.0953 9.10254 13.8978 10.4525Z" fill="#D8D8D8"/>
</g>
<defs>
<clipPath id="clip0_33_1329">
<rect width="20" height="20" fill="white"/>
</clipPath>
</defs>
</svg>
