<svg width="24" height="24" viewBox="0 0 24 24" fill="none" xmlns="http://www.w3.org/2000/svg">
<path d="M1.72787 15.4058C1.43051 15.6943 1.42318 16.1689 1.71176 16.4663L4.59604 19.4392C4.59622 19.4394 4.59649 19.4395 4.59668 19.4397C4.733 19.5807 4.92242 19.6699 5.13437 19.6699C5.34631 19.6699 5.53573 19.5807 5.67205 19.4397C5.67224 19.4395 5.67251 19.4394 5.6727 19.4392L8.5577 16.4663C8.84628 16.1689 8.83895 15.6943 8.54159 15.4058C8.24423 15.1172 7.76962 15.1245 7.48104 15.4219L5.88437 17.0674V5.08008C5.88437 4.66553 5.54892 4.33008 5.13437 4.33008C4.71981 4.33008 4.38436 4.66553 4.38436 5.08008V17.0672L2.78842 15.4219C2.49984 15.1245 2.02523 15.1172 1.72787 15.4058Z" fill="white"/>
<path d="M20.1602 9.69238C20.1602 9.27783 19.8247 8.94238 19.4102 8.94238H11.2715C10.8569 8.94238 10.5215 9.27783 10.5215 9.69238C10.5215 10.1069 10.8569 10.4424 11.2715 10.4424H19.4102C19.8247 10.4424 20.1602 10.1069 20.1602 9.69238Z" fill="white"/>
<path d="M17.8201 14.3047C17.8201 13.8901 17.4846 13.5547 17.0701 13.5547H11.2715C10.8569 13.5547 10.5215 13.8901 10.5215 14.3047C10.5215 14.7192 10.8569 15.0547 11.2715 15.0547H17.0701C17.4846 15.0547 17.8201 14.7192 17.8201 14.3047Z" fill="white"/>
<path d="M11.2715 18.1699C10.8569 18.1699 10.5215 18.5054 10.5215 18.9199C10.5215 19.3345 10.8569 19.6699 11.2715 19.6699H14.73C15.1445 19.6699 15.48 19.3345 15.48 18.9199C15.48 18.5054 15.1445 18.1699 14.73 18.1699H11.2715Z" fill="white"/>
<path d="M21.7502 4.33008H11.2715C10.8569 4.33008 10.5215 4.66553 10.5215 5.08008C10.5215 5.49463 10.8569 5.83008 11.2715 5.83008H21.7502C22.1648 5.83008 22.5002 5.49463 22.5002 5.08008C22.5002 4.66553 22.1648 4.33008 21.7502 4.33008Z" fill="white"/>
</svg>
