<svg width="24" height="24" viewBox="0 0 24 24" fill="none" xmlns="http://www.w3.org/2000/svg">
<path d="M1.72787 8.59424C1.43051 8.30566 1.42318 7.83105 1.71176 7.53369L4.59604 4.56079C4.59622 4.56061 4.59649 4.56052 4.59668 4.56033C4.733 4.41925 4.92242 4.33008 5.13437 4.33008C5.34631 4.33008 5.53573 4.41925 5.67205 4.56033C5.67224 4.56052 5.67251 4.56061 5.6727 4.56079L8.5577 7.53369C8.84628 7.83105 8.83895 8.30566 8.54159 8.59424C8.24423 8.88281 7.76962 8.87549 7.48104 8.57812L5.88437 6.9326V18.9199C5.88437 19.3345 5.54892 19.6699 5.13437 19.6699C4.71981 19.6699 4.38436 19.3345 4.38436 18.9199V6.93283L2.78842 8.57812C2.49984 8.87549 2.02523 8.88281 1.72787 8.59424Z" fill="white"/>
<path d="M20.1602 14.3076C20.1602 14.7222 19.8247 15.0576 19.4102 15.0576H11.2715C10.8569 15.0576 10.5215 14.7222 10.5215 14.3076C10.5215 13.8931 10.8569 13.5576 11.2715 13.5576H19.4102C19.8247 13.5576 20.1602 13.8931 20.1602 14.3076Z" fill="white"/>
<path d="M17.8201 9.69531C17.8201 10.1099 17.4846 10.4453 17.0701 10.4453H11.2715C10.8569 10.4453 10.5215 10.1099 10.5215 9.69531C10.5215 9.28076 10.8569 8.94531 11.2715 8.94531H17.0701C17.4846 8.94531 17.8201 9.28076 17.8201 9.69531Z" fill="white"/>
<path d="M11.2715 5.83008C10.8569 5.83008 10.5215 5.49463 10.5215 5.08008C10.5215 4.66553 10.8569 4.33008 11.2715 4.33008H14.73C15.1445 4.33008 15.48 4.66553 15.48 5.08008C15.48 5.49463 15.1445 5.83008 14.73 5.83008H11.2715Z" fill="white"/>
<path d="M21.7502 19.6699H11.2715C10.8569 19.6699 10.5215 19.3345 10.5215 18.9199C10.5215 18.5054 10.8569 18.1699 11.2715 18.1699H21.7502C22.1648 18.1699 22.5002 18.5054 22.5002 18.9199C22.5002 19.3345 22.1648 19.6699 21.7502 19.6699Z" fill="white"/>
</svg>
