<?xml version="1.0" encoding="UTF-8"?><svg id="Layer_1" xmlns="http://www.w3.org/2000/svg" xmlns:xlink="http://www.w3.org/1999/xlink" viewBox="0 0 848.52 556.35"><defs><style>.cls-1{fill:url(#linear-gradient);}.cls-1,.cls-2{stroke-width:0px;}.cls-2{fill:#fff;}</style><linearGradient id="linear-gradient" x1="984.42" y1="20.77" x2="228.31" y2="466.2" gradientUnits="userSpaceOnUse"><stop offset="0" stop-color="#03e7e7"/><stop offset="1" stop-color="#fff"/></linearGradient></defs><path class="cls-2" d="M269.8,287.43c4.24,2.72,4.03,8.98-.32,11.52-59.86,35.04-133.29,46.07-174.85,47.46-48.66,1.64-99.5-21.41-94.26-66.71,4.76-41.15,52.65-58.88,100.26-56.01,52.04,3.14,105.54,22.82,169.16,63.73Z"/><path class="cls-1" d="M821.67,42.38c-44.55-47.86-107.14-53.42-164.22-25.56-84.01,40.94-180.61,159.61-250.01,219.77-71.29,61.82-159.14,118.73-265.03,134.82-7.93,1.18-7.99,12.6-.06,13.78,218.53,33.01,448.78-9.29,550.47-61.64,1.6-.83,3.14-1.66,4.67-2.54,2.13,12.9,8.28,23.6,18.28,29.82,23.6,14.55,59.75-1.18,80.69-35.14,17.51-28.34,18.87-60.34,5.27-78.68,56.97-71.7,59.81-151.8,19.94-194.63ZM754.64,288.66c-2.66,5.74-9.47,8.22-15.26,5.74l-126.25-54.72c-17.16,28.1-45.43,42.59-67.2,32.77-24.43-11-31.41-48.57-15.5-83.83,15.85-35.26,48.63-54.9,73.06-43.9,21.12,9.53,29.16,38.81,20.76,69.27l124.82,58.98c5.86,2.78,8.34,9.82,5.56,15.68Z"/><path class="cls-2" d="M298.38,421.25c-18.53-1.17-35.25,15.86-41.55,40.09l-118.87-9.88c-4.96-35.38-25.75-62.29-52.31-63.98-32.34-2.05-60.96,34.07-63.91,80.68-2.95,46.6,20.88,86.05,53.22,88.09,27.35,1.73,51.96-23.86,60.71-59.97l119.46-1.5c3.74,23.74,17.89,41.65,35.87,42.79,22.29,1.41,42.01-23.49,44.05-55.61,2.03-32.12-14.39-59.31-36.68-60.72Z"/></svg>