<?xml version="1.0" encoding="UTF-8"?>
<!DOCTYPE svg PUBLIC "-//W3C//DTD SVG 1.1//EN" "http://www.w3.org/Graphics/SVG/1.1/DTD/svg11.dtd">
<svg xmlns="http://www.w3.org/2000/svg" version="1.1" width="300px" height="300px" style="shape-rendering:geometricPrecision; text-rendering:geometricPrecision; image-rendering:optimizeQuality; fill-rule:evenodd; clip-rule:evenodd" xmlns:xlink="http://www.w3.org/1999/xlink">
<g><path style="opacity:0.992" fill="#3e3172" d="M 96.5,13.5 C 100.956,15.8915 105.623,18.0582 110.5,20C 113.62,22.4077 114.953,25.5743 114.5,29.5C 113.662,29.8417 113.328,30.5084 113.5,31.5C 112.833,31.5 112.5,31.8333 112.5,32.5C 111.833,32.5 111.5,32.8333 111.5,33.5C 110.508,33.3284 109.842,33.6618 109.5,34.5C 107.5,34.5 105.5,34.5 103.5,34.5C 101.491,32.9348 99.1573,31.9348 96.5,31.5C 96.1583,30.6618 95.4916,30.3284 94.5,30.5C 93.791,29.596 92.791,29.2627 91.5,29.5C 91.1583,28.6618 90.4916,28.3284 89.5,28.5C 85.7843,26.5947 81.7843,25.2613 77.5,24.5C 76.4324,23.5655 75.099,23.2322 73.5,23.5C 72.4324,22.5655 71.099,22.2322 69.5,22.5C 67.7354,21.5386 65.7354,21.2053 63.5,21.5C 56.3451,20.3448 49.0118,20.1782 41.5,21C 39.1484,21.2401 37.1484,22.0735 35.5,23.5C 34.5084,23.3284 33.8417,23.6618 33.5,24.5C 32.5084,24.3284 31.8417,24.6618 31.5,25.5C 30.5084,25.3284 29.8417,25.6618 29.5,26.5C 28.8333,26.5 28.5,26.8333 28.5,27.5C 27.8333,27.5 27.5,27.8333 27.5,28.5C 26.8333,28.5 26.5,28.8333 26.5,29.5C 25.0937,29.9731 24.427,30.9731 24.5,32.5C 23.6618,32.8417 23.3284,33.5084 23.5,34.5C 22.6618,34.8417 22.3284,35.5084 22.5,36.5C 21.3995,38.2774 20.5662,40.2774 20,42.5C 19.1782,50.0118 19.3448,57.3451 20.5,64.5C 20.2053,66.7354 20.5386,68.7354 21.5,70.5C 21.2322,72.099 21.5655,73.4324 22.5,74.5C 22.2322,76.099 22.5655,77.4324 23.5,78.5C 32.2655,105.545 45.2655,130.212 62.5,152.5C 62.5,153.167 62.8333,153.5 63.5,153.5C 63.9321,154.71 64.5987,155.71 65.5,156.5C 65.5,157.167 65.8333,157.5 66.5,157.5C 69.6954,162.569 73.3621,167.235 77.5,171.5C 77.5,172.167 77.8333,172.5 78.5,172.5C 80.177,174.54 81.8437,176.54 83.5,178.5C 83.5,179.167 83.8333,179.5 84.5,179.5C 86.1667,181.833 88.1667,183.833 90.5,185.5C 90.7376,187.404 91.7376,188.738 93.5,189.5C 93.5,190.167 93.8333,190.5 94.5,190.5C 94.5,191.167 94.8333,191.5 95.5,191.5C 95.5,192.167 95.8333,192.5 96.5,192.5C 96.5,193.167 96.8333,193.5 97.5,193.5C 97.5,194.167 97.8333,194.5 98.5,194.5C 98.5,195.167 98.8333,195.5 99.5,195.5C 100.833,197.5 102.5,199.167 104.5,200.5C 104.5,201.167 104.833,201.5 105.5,201.5C 105.5,202.167 105.833,202.5 106.5,202.5C 106.5,203.167 106.833,203.5 107.5,203.5C 107.5,204.167 107.833,204.5 108.5,204.5C 108.5,205.167 108.833,205.5 109.5,205.5C 110.585,207.587 112.251,208.92 114.5,209.5C 115.833,211.5 117.5,213.167 119.5,214.5C 119.5,215.167 119.833,215.5 120.5,215.5C 120.973,216.906 121.973,217.573 123.5,217.5C 124.5,219.167 125.833,220.5 127.5,221.5C 127.973,222.906 128.973,223.573 130.5,223.5C 131.167,224.833 132.167,225.833 133.5,226.5C 133.973,227.906 134.973,228.573 136.5,228.5C 138.091,230.633 140.091,232.299 142.5,233.5C 142.973,234.906 143.973,235.573 145.5,235.5C 145.5,236.167 145.833,236.5 146.5,236.5C 146.973,237.906 147.973,238.573 149.5,238.5C 151.531,240.522 153.865,242.189 156.5,243.5C 156.973,244.906 157.973,245.573 159.5,245.5C 159.5,246.167 159.833,246.5 160.5,246.5C 160.842,247.338 161.508,247.672 162.5,247.5C 162.973,248.906 163.973,249.573 165.5,249.5C 171.98,254.292 178.98,258.292 186.5,261.5C 186.973,262.906 187.973,263.573 189.5,263.5C 189.842,264.338 190.508,264.672 191.5,264.5C 194.256,266.204 197.256,267.537 200.5,268.5C 200.842,269.338 201.508,269.672 202.5,269.5C 207.801,272.269 213.468,274.269 219.5,275.5C 221.515,276.924 223.848,277.59 226.5,277.5C 230.236,278.989 234.236,279.656 238.5,279.5C 245.039,280.731 251.705,280.564 258.5,279C 262.346,277.914 265.68,276.081 268.5,273.5C 270.5,273.5 271.5,272.5 271.5,270.5C 274.937,267.299 277.104,263.299 278,258.5C 279.928,250.658 279.761,242.992 277.5,235.5C 277.678,231.878 277.011,228.544 275.5,225.5C 275.59,222.848 274.924,220.515 273.5,218.5C 273.737,217.209 273.404,216.209 272.5,215.5C 272.737,214.209 272.404,213.209 271.5,212.5C 271.598,210.447 270.931,208.78 269.5,207.5C 269.737,206.209 269.404,205.209 268.5,204.5C 268.34,202.847 267.674,201.514 266.5,200.5C 266.672,199.508 266.338,198.842 265.5,198.5C 265.737,197.209 265.404,196.209 264.5,195.5C 264.298,193.05 264.631,190.717 265.5,188.5C 266.833,187.833 267.833,186.833 268.5,185.5C 271.834,184.537 275.001,185.203 278,187.5C 281.154,193.47 283.988,199.47 286.5,205.5C 286.328,206.492 286.662,207.158 287.5,207.5C 290.016,216.567 292.349,225.567 294.5,234.5C 294.693,244.194 294.36,253.861 293.5,263.5C 292.596,264.209 292.263,265.209 292.5,266.5C 291.596,267.209 291.263,268.209 291.5,269.5C 290.662,269.842 290.328,270.508 290.5,271.5C 289.662,271.842 289.328,272.508 289.5,273.5C 288.662,273.842 288.328,274.508 288.5,275.5C 287.833,275.5 287.5,275.833 287.5,276.5C 286.662,276.842 286.328,277.508 286.5,278.5C 285.833,278.5 285.5,278.833 285.5,279.5C 284.833,279.5 284.5,279.833 284.5,280.5C 281.973,282.605 279.64,284.939 277.5,287.5C 276.833,287.5 276.5,287.833 276.5,288.5C 275.508,288.328 274.842,288.662 274.5,289.5C 273.508,289.328 272.842,289.662 272.5,290.5C 271.833,290.5 271.5,290.833 271.5,291.5C 268.557,291.98 265.89,292.98 263.5,294.5C 261.901,294.232 260.568,294.566 259.5,295.5C 257.265,295.205 255.265,295.539 253.5,296.5C 245.817,296.477 238.15,296.143 230.5,295.5C 218.728,292.466 207.061,288.8 195.5,284.5C 195.158,283.662 194.492,283.328 193.5,283.5C 193.158,282.662 192.492,282.328 191.5,282.5C 190.22,281.069 188.553,280.402 186.5,280.5C 179.495,275.995 172.161,271.995 164.5,268.5C 164.5,267.833 164.167,267.5 163.5,267.5C 152.582,260.59 141.915,253.257 131.5,245.5C 131.5,244.833 131.167,244.5 130.5,244.5C 127.81,241.815 124.81,239.482 121.5,237.5C 121.5,236.833 121.167,236.5 120.5,236.5C 118.858,235.197 117.191,233.864 115.5,232.5C 115.5,231.833 115.167,231.5 114.5,231.5C 111.859,229.196 109.192,226.862 106.5,224.5C 106.5,223.833 106.167,223.5 105.5,223.5C 105.5,222.833 105.167,222.5 104.5,222.5C 94.8333,213.5 85.5,204.167 76.5,194.5C 76.5,193.833 76.1667,193.5 75.5,193.5C 73.1377,190.808 70.8044,188.141 68.5,185.5C 68.5,184.833 68.1667,184.5 67.5,184.5C 66.1363,182.809 64.803,181.142 63.5,179.5C 63.5,178.833 63.1667,178.5 62.5,178.5C 61.396,176.611 60.0627,174.945 58.5,173.5C 58.5,172.833 58.1667,172.5 57.5,172.5C 55.8532,169.527 53.8532,166.86 51.5,164.5C 50.4884,163.128 49.4884,161.795 48.5,160.5C 47.1891,157.865 45.5224,155.531 43.5,153.5C 43.0679,152.29 42.4013,151.29 41.5,150.5C 41.0679,149.29 40.4013,148.29 39.5,147.5C 39.5,146.833 39.1667,146.5 38.5,146.5C 38.6716,145.508 38.3382,144.842 37.5,144.5C 37.0679,143.29 36.4013,142.29 35.5,141.5C 35.0679,140.29 34.4013,139.29 33.5,138.5C 33.6716,137.508 33.3382,136.842 32.5,136.5C 32.0679,135.29 31.4013,134.29 30.5,133.5C 30.6716,132.508 30.3382,131.842 29.5,131.5C 29.5,130.833 29.1667,130.5 28.5,130.5C 28.6716,129.508 28.3382,128.842 27.5,128.5C 27.6716,127.508 27.3382,126.842 26.5,126.5C 26.6716,125.508 26.3382,124.842 25.5,124.5C 25.0679,123.29 24.4013,122.29 23.5,121.5C 23.6716,120.508 23.3382,119.842 22.5,119.5C 22.6716,118.508 22.3382,117.842 21.5,117.5C 21.6716,116.508 21.3382,115.842 20.5,115.5C 20.6716,114.508 20.3382,113.842 19.5,113.5C 19.6716,112.508 19.3382,111.842 18.5,111.5C 18.6716,110.508 18.3382,109.842 17.5,109.5C 17.6716,108.508 17.3382,107.842 16.5,107.5C 16.7373,106.209 16.404,105.209 15.5,104.5C 15.6716,103.508 15.3382,102.842 14.5,102.5C 14.6716,101.508 14.3382,100.842 13.5,100.5C 13.7373,99.209 13.404,98.209 12.5,97.5C 12.6716,96.5084 12.3382,95.8417 11.5,95.5C 11.405,93.2143 10.7384,91.2143 9.5,89.5C 9.73731,88.209 9.40397,87.209 8.5,86.5C 8.27852,83.9327 7.61185,81.5994 6.5,79.5C 6.76781,77.901 6.43448,76.5676 5.5,75.5C 5.76781,73.901 5.43448,72.5676 4.5,71.5C 3.5082,61.8523 3.34153,52.1857 4,42.5C 6.27576,27.7589 13.7758,16.7589 26.5,9.5C 38.697,4.73567 51.3636,3.23567 64.5,5C 75.3843,7.13006 86.051,9.96339 96.5,13.5 Z M 26.5,29.5 C 26.573,31.0269 25.9063,32.0269 24.5,32.5C 24.427,30.9731 25.0937,29.9731 26.5,29.5 Z M 90.5,185.5 C 91.5,186.167 92.5,186.833 93.5,187.5C 93.5,188.167 93.5,188.833 93.5,189.5C 91.7376,188.738 90.7376,187.404 90.5,185.5 Z M 268.5,185.5 C 267.833,186.833 266.833,187.833 265.5,188.5C 265.5,186.5 266.5,185.5 268.5,185.5 Z M 109.5,205.5 C 110.167,205.5 110.833,205.5 111.5,205.5C 112.5,206.833 113.5,208.167 114.5,209.5C 112.251,208.92 110.585,207.587 109.5,205.5 Z M 269.5,207.5 C 270.931,208.78 271.598,210.447 271.5,212.5C 270.069,211.22 269.402,209.553 269.5,207.5 Z M 219.5,212.5 C 219.573,214.027 218.906,215.027 217.5,215.5C 217.5,214.833 217.5,214.167 217.5,213.5C 218.167,213.167 218.833,212.833 219.5,212.5 Z M 120.5,215.5 C 121.167,215.5 121.833,215.5 122.5,215.5C 122.833,216.167 123.167,216.833 123.5,217.5C 121.973,217.573 120.973,216.906 120.5,215.5 Z M 273.5,218.5 C 274.924,220.515 275.59,222.848 275.5,225.5C 274.076,223.485 273.41,221.152 273.5,218.5 Z M 127.5,221.5 C 129.027,221.427 130.027,222.094 130.5,223.5C 128.973,223.573 127.973,222.906 127.5,221.5 Z M 133.5,226.5 C 135.027,226.427 136.027,227.094 136.5,228.5C 134.973,228.573 133.973,227.906 133.5,226.5 Z M 206.5,226.5 C 206.027,227.906 205.027,228.573 203.5,228.5C 203.973,227.094 204.973,226.427 206.5,226.5 Z M 142.5,233.5 C 144.027,233.427 145.027,234.094 145.5,235.5C 143.973,235.573 142.973,234.906 142.5,233.5 Z M 146.5,236.5 C 148.027,236.427 149.027,237.094 149.5,238.5C 147.973,238.573 146.973,237.906 146.5,236.5 Z M 212.5,242.5 C 212.027,243.906 211.027,244.573 209.5,244.5C 209.973,243.094 210.973,242.427 212.5,242.5 Z M 156.5,243.5 C 157.609,243.557 158.609,243.89 159.5,244.5C 159.5,244.833 159.5,245.167 159.5,245.5C 157.973,245.573 156.973,244.906 156.5,243.5 Z M 162.5,247.5 C 164.027,247.427 165.027,248.094 165.5,249.5C 163.973,249.573 162.973,248.906 162.5,247.5 Z M 271.5,270.5 C 271.5,272.5 270.5,273.5 268.5,273.5C 269.167,272.167 270.167,271.167 271.5,270.5 Z M 219.5,275.5 C 222.152,275.41 224.485,276.076 226.5,277.5C 223.848,277.59 221.515,276.924 219.5,275.5 Z M 226.5,277.5 C 230.733,277.539 234.733,278.205 238.5,279.5C 234.236,279.656 230.236,278.989 226.5,277.5 Z"/></g>
<g><path style="opacity:0.004" fill="#1e1d33" d="M 26.5,9.5 C 24.0248,9.2533 24.0248,8.58664 26.5,7.5C 27.463,7.96983 27.463,8.6365 26.5,9.5 Z"/></g>
<g><path style="opacity:0.016" fill="#4a4671" d="M 96.5,13.5 C 96.8966,12.475 97.5632,12.3083 98.5,13C 97.9056,13.4643 97.2389,13.631 96.5,13.5 Z"/></g>
<g><path style="opacity:0.008" fill="#682077" d="M 99.5,14.5 C 99.8966,13.475 100.563,13.3083 101.5,14C 100.906,14.4643 100.239,14.631 99.5,14.5 Z"/></g>
<g><path style="opacity:0.016" fill="#352759" d="M 42.5,22.5 C 49.3134,21.5088 56.3134,21.1755 63.5,21.5C 65.2646,22.4614 67.2646,22.7947 69.5,22.5C 69.5,22.8333 69.5,23.1667 69.5,23.5C 60.5211,22.7345 51.5211,22.4011 42.5,22.5 Z"/></g>
<g><path style="opacity:0.016" fill="#402b60" d="M 42.5,22.5 C 41.3991,23.5983 40.0657,23.765 38.5,23C 39.7932,22.51 41.1266,22.3433 42.5,22.5 Z"/></g>
<g><path style="opacity:0.016" fill="#404080" d="M 35.5,24.5 C 35.5,24.1667 35.5,23.8333 35.5,23.5C 38.1667,23.8333 38.1667,24.1667 35.5,24.5 Z"/></g>
<g><path style="opacity:0.016" fill="#2c2466" d="M 69.5,23.5 C 70.8333,23.5 72.1667,23.5 73.5,23.5C 74.5676,24.4345 75.901,24.7678 77.5,24.5C 74.7067,25.746 72.04,25.4127 69.5,23.5 Z"/></g>
<g><path style="opacity:0.004" fill="#3121c9" d="M 33.5,25.5 C 33.5,25.1667 33.5,24.8333 33.5,24.5C 34.1667,24.5 34.8333,24.5 35.5,24.5C 35.1583,25.3382 34.4916,25.6716 33.5,25.5 Z"/></g>
<g><path style="opacity:0.004" fill="#2e1ec3" d="M 31.5,26.5 C 31.5,26.1667 31.5,25.8333 31.5,25.5C 32.1667,25.5 32.8333,25.5 33.5,25.5C 33.1583,26.3382 32.4916,26.6716 31.5,26.5 Z"/></g>
<g><path style="opacity:0.004" fill="#30233d" d="M 29.5,26.5 C 30.1667,26.5 30.8333,26.5 31.5,26.5C 31.0269,27.9063 30.0269,28.573 28.5,28.5C 28.5,28.1667 28.5,27.8333 28.5,27.5C 29.1667,27.5 29.5,27.1667 29.5,26.5 Z"/></g>
<g><path style="opacity:0.024" fill="#2b2b80" d="M 27.5,28.5 C 27.8333,28.5 28.1667,28.5 28.5,28.5C 28.3147,29.1701 27.9813,29.1701 27.5,28.5 Z"/></g>
<g><path style="opacity:0.004" fill="#271e3b" d="M 89.5,28.5 C 89.8417,29.3382 90.5084,29.6716 91.5,29.5C 91.5,29.8333 91.5,30.1667 91.5,30.5C 89.6916,30.5086 88.0249,30.0086 86.5,29C 87.448,28.5172 88.448,28.3505 89.5,28.5 Z"/></g>
<g><path style="opacity:0.004" fill="#2b2641" d="M 115.5,29.5 C 115.34,27.8008 115.506,26.1341 116,24.5C 116.78,26.3869 116.613,28.0536 115.5,29.5 Z"/></g>
<g><path style="opacity:0.004" fill="#231e44" d="M 91.5,30.5 C 92.5,30.5 93.5,30.5 94.5,30.5C 94.8417,31.3382 95.5084,31.6716 96.5,31.5C 94.6621,32.6783 92.9955,32.345 91.5,30.5 Z"/></g>
<g><path style="opacity:0.008" fill="#6d257f" d="M 114.5,29.5 C 114.833,29.5 115.167,29.5 115.5,29.5C 115.672,30.4916 115.338,31.1583 114.5,31.5C 114.5,30.8333 114.5,30.1667 114.5,29.5 Z"/></g>
<g><path style="opacity:0.016" fill="#404080" d="M 113.5,31.5 C 113.833,31.5 114.167,31.5 114.5,31.5C 114.315,32.1701 113.981,32.1701 113.5,31.5 Z"/></g>
<g><path style="opacity:0.016" fill="#404080" d="M 112.5,32.5 C 112.833,32.5 113.167,32.5 113.5,32.5C 113.315,33.1701 112.981,33.1701 112.5,32.5 Z"/></g>
<g><path style="opacity:0.016" fill="#404080" d="M 111.5,33.5 C 111.833,33.5 112.167,33.5 112.5,33.5C 112.315,34.1701 111.981,34.1701 111.5,33.5 Z"/></g>
<g><path style="opacity:0.008" fill="#1f1577" d="M 23.5,34.5 C 24.8333,35.1667 24.8333,35.8333 23.5,36.5C 23.5,35.8333 23.5,35.1667 23.5,34.5 Z"/></g>
<g><path style="opacity:0.016" fill="#40396d" d="M 103.5,34.5 C 105.5,35.8333 107.5,35.8333 109.5,34.5C 110.167,34.5 110.833,34.5 111.5,34.5C 111.389,35.1174 111.056,35.6174 110.5,36C 107.294,36.8902 104.294,36.5569 101.5,35C 102.094,34.5357 102.761,34.369 103.5,34.5 Z"/></g>
<g><path style="opacity:0.016" fill="#32305e" d="M 22.5,36.5 C 22.8333,36.5 23.1667,36.5 23.5,36.5C 23.1667,40.5 22.8333,40.5 22.5,36.5 Z"/></g>
<g><path style="opacity:0.02" fill="#393166" d="M 130.5,43.5 C 123.469,43.4812 123.136,42.9812 129.5,42C 133.5,41.3333 137.5,41.3333 141.5,42C 137.644,42.1773 133.977,42.6773 130.5,43.5 Z"/></g>
<g><path style="opacity:0.02" fill="#413174" d="M 149.5,42.5 C 155.046,41.259 160.713,41.4256 166.5,43C 164.527,43.4955 162.527,43.6621 160.5,43.5C 157.038,42.5184 153.371,42.185 149.5,42.5 Z"/></g>
<g><path style="opacity:0.993" fill="#3e3172" d="M 149.5,42.5 C 152.962,43.4816 156.629,43.815 160.5,43.5C 174.007,46.0023 187.007,50.3356 199.5,56.5C 199.5,57.1667 199.833,57.5 200.5,57.5C 206.305,61.2417 211.971,65.2417 217.5,69.5C 217.5,70.1667 217.833,70.5 218.5,70.5C 218.5,71.1667 218.833,71.5 219.5,71.5C 222.719,74.2635 225.719,77.2635 228.5,80.5C 228.5,81.1667 228.833,81.5 229.5,81.5C 235.987,89.6491 241.654,98.3158 246.5,107.5C 250.297,117.701 253.297,128.034 255.5,138.5C 256.951,153.657 255.951,168.657 252.5,183.5C 251.054,186.254 250.054,189.254 249.5,192.5C 248.596,193.209 248.263,194.209 248.5,195.5C 247.662,195.842 247.328,196.508 247.5,197.5C 245.707,199.426 244.707,201.759 244.5,204.5C 243.094,204.973 242.427,205.973 242.5,207.5C 241.662,207.842 241.328,208.508 241.5,209.5C 240.662,209.842 240.328,210.508 240.5,211.5C 239.833,211.5 239.5,211.833 239.5,212.5C 238.662,212.842 238.328,213.508 238.5,214.5C 237.833,214.5 237.5,214.833 237.5,215.5C 236.662,215.842 236.328,216.508 236.5,217.5C 235.833,217.5 235.5,217.833 235.5,218.5C 234.662,218.842 234.328,219.508 234.5,220.5C 233.833,220.5 233.5,220.833 233.5,221.5C 232.833,221.5 232.5,221.833 232.5,222.5C 231.833,222.5 231.5,222.833 231.5,223.5C 230.662,223.842 230.328,224.508 230.5,225.5C 229.833,225.5 229.5,225.833 229.5,226.5C 228.833,226.5 228.5,226.833 228.5,227.5C 227.833,227.5 227.5,227.833 227.5,228.5C 226.833,228.5 226.5,228.833 226.5,229.5C 225.833,229.5 225.5,229.833 225.5,230.5C 224.833,230.5 224.5,230.833 224.5,231.5C 223.833,231.5 223.5,231.833 223.5,232.5C 222.833,232.5 222.5,232.833 222.5,233.5C 221.833,233.5 221.5,233.833 221.5,234.5C 220.833,234.5 220.5,234.833 220.5,235.5C 219.833,235.5 219.5,235.833 219.5,236.5C 218.833,236.5 218.5,236.833 218.5,237.5C 217.833,237.5 217.5,237.833 217.5,238.5C 216.833,238.5 216.5,238.833 216.5,239.5C 215.508,239.328 214.842,239.662 214.5,240.5C 213.833,240.5 213.5,240.833 213.5,241.5C 212.833,241.5 212.5,241.833 212.5,242.5C 210.973,242.427 209.973,243.094 209.5,244.5C 208.833,244.5 208.5,244.833 208.5,245.5C 207.508,245.328 206.842,245.662 206.5,246.5C 205.833,246.5 205.5,246.833 205.5,247.5C 204.508,247.328 203.842,247.662 203.5,248.5C 202.833,248.5 202.5,248.833 202.5,249.5C 201.508,249.328 200.842,249.662 200.5,250.5C 199.508,250.328 198.842,250.662 198.5,251.5C 197.508,251.328 196.842,251.662 196.5,252.5C 195.508,252.328 194.842,252.662 194.5,253.5C 193.833,253.5 193.5,253.833 193.5,254.5C 188.121,255.698 184.121,254.031 181.5,249.5C 181.298,247.011 181.798,244.677 183,242.5C 186.977,239.435 191.144,236.768 195.5,234.5C 196.167,234.5 196.5,234.167 196.5,233.5C 198.434,232.89 200.101,231.89 201.5,230.5C 202.167,230.5 202.5,230.167 202.5,229.5C 203.167,229.5 203.5,229.167 203.5,228.5C 205.027,228.573 206.027,227.906 206.5,226.5C 210.167,223.5 213.5,220.167 216.5,216.5C 217.167,216.5 217.5,216.167 217.5,215.5C 218.906,215.027 219.573,214.027 219.5,212.5C 220.167,212.5 220.5,212.167 220.5,211.5C 221.167,211.5 221.5,211.167 221.5,210.5C 222.89,209.101 223.89,207.434 224.5,205.5C 225.167,205.5 225.5,205.167 225.5,204.5C 227.083,202.337 228.416,200.004 229.5,197.5C 230.931,196.22 231.598,194.553 231.5,192.5C 236.644,183.265 239.31,173.265 239.5,162.5C 240.983,152.382 240.316,142.382 237.5,132.5C 237.768,130.901 237.434,129.568 236.5,128.5C 236.737,127.209 236.404,126.209 235.5,125.5C 235.072,122.215 234.072,119.215 232.5,116.5C 232.672,115.508 232.338,114.842 231.5,114.5C 231.672,113.508 231.338,112.842 230.5,112.5C 230.672,111.508 230.338,110.842 229.5,110.5C 229.672,109.508 229.338,108.842 228.5,108.5C 228.672,107.508 228.338,106.842 227.5,106.5C 227.573,104.973 226.906,103.973 225.5,103.5C 225.672,102.508 225.338,101.842 224.5,101.5C 224.068,100.29 223.401,99.2905 222.5,98.5C 221.488,97.1283 220.488,95.795 219.5,94.5C 219.5,93.8333 219.167,93.5 218.5,93.5C 217.833,92.1667 216.833,91.1667 215.5,90.5C 214.167,87.1667 211.833,84.8333 208.5,83.5C 207.833,82.1667 206.833,81.1667 205.5,80.5C 205.5,79.8333 205.167,79.5 204.5,79.5C 203.71,78.5987 202.71,77.9321 201.5,77.5C 201.5,76.8333 201.167,76.5 200.5,76.5C 195.684,72.7072 190.35,69.7072 184.5,67.5C 183.22,66.0687 181.553,65.4021 179.5,65.5C 176.785,63.9281 173.785,62.9281 170.5,62.5C 167.456,60.9886 164.122,60.322 160.5,60.5C 145.905,57.3842 131.571,58.3842 117.5,63.5C 116.209,63.2627 115.209,63.596 114.5,64.5C 113.209,64.2627 112.209,64.596 111.5,65.5C 110.508,65.3284 109.842,65.6618 109.5,66.5C 108.209,66.2627 107.209,66.596 106.5,67.5C 105.508,67.3284 104.842,67.6618 104.5,68.5C 103.508,68.3284 102.842,68.6618 102.5,69.5C 101.508,69.3284 100.842,69.6618 100.5,70.5C 99.5084,70.3284 98.8417,70.6618 98.5,71.5C 96.9731,71.427 95.9731,72.0937 95.5,73.5C 94.5084,73.3284 93.8417,73.6618 93.5,74.5C 92.8333,74.5 92.5,74.8333 92.5,75.5C 91.5084,75.3284 90.8417,75.6618 90.5,76.5C 89.8333,76.5 89.5,76.8333 89.5,77.5C 88.8333,77.5 88.5,77.8333 88.5,78.5C 87.5084,78.3284 86.8417,78.6618 86.5,79.5C 85.8333,79.5 85.5,79.8333 85.5,80.5C 84.8333,80.5 84.5,80.8333 84.5,81.5C 83.8333,81.5 83.5,81.8333 83.5,82.5C 81.9731,82.427 80.9731,83.0937 80.5,84.5C 79.8333,84.5 79.5,84.8333 79.5,85.5C 78.8333,85.5 78.5,85.8333 78.5,86.5C 77.8333,86.5 77.5,86.8333 77.5,87.5C 76.8333,87.5 76.5,87.8333 76.5,88.5C 75.8333,88.5 75.5,88.8333 75.5,89.5C 74.0937,89.9731 73.427,90.9731 73.5,92.5C 72.8333,92.5 72.5,92.8333 72.5,93.5C 71.8333,93.5 71.5,93.8333 71.5,94.5C 70.8333,94.5 70.5,94.8333 70.5,95.5C 69.6618,95.8417 69.3284,96.5084 69.5,97.5C 68.8333,97.5 68.5,97.8333 68.5,98.5C 67.0937,98.9731 66.427,99.9731 66.5,101.5C 65.0937,101.973 64.427,102.973 64.5,104.5C 63.6618,104.842 63.3284,105.508 63.5,106.5C 62.6618,106.842 62.3284,107.508 62.5,108.5C 60.8958,109.287 60.2291,110.62 60.5,112.5C 59.0937,112.973 58.427,113.973 58.5,115.5C 57.8333,115.5 57.5,115.833 57.5,116.5C 56.5084,116.328 55.8417,116.662 55.5,117.5C 53.5,117.5 51.5,117.5 49.5,117.5C 47.5,116.167 45.8333,114.5 44.5,112.5C 45.1783,107.131 47.0116,102.131 50,97.5C 53.5097,92.4709 57.0097,87.4709 60.5,82.5C 61.1667,82.5 61.5,82.1667 61.5,81.5C 64.8333,77.5 68.5,73.8333 72.5,70.5C 73.1667,70.5 73.5,70.1667 73.5,69.5C 79.0288,65.2417 84.6955,61.2417 90.5,57.5C 91.1667,57.5 91.5,57.1667 91.5,56.5C 103.993,50.3356 116.993,46.0023 130.5,43.5C 136.857,43.5237 143.19,43.1904 149.5,42.5 Z M 160.5,60.5 C 150.29,58.8578 140.29,59.1911 130.5,61.5C 126.14,62.0067 121.807,62.6734 117.5,63.5C 131.571,58.3842 145.905,57.3842 160.5,60.5 Z M 160.5,61.5 C 160.5,61.1667 160.5,60.8333 160.5,60.5C 164.122,60.322 167.456,60.9886 170.5,62.5C 167.167,62.1667 163.833,61.8333 160.5,61.5 Z M 179.5,65.5 C 181.553,65.4021 183.22,66.0687 184.5,67.5C 182.447,67.5979 180.78,66.9313 179.5,65.5 Z M 98.5,71.5 C 98.0269,72.9063 97.0269,73.573 95.5,73.5C 95.9731,72.0937 96.9731,71.427 98.5,71.5 Z M 83.5,82.5 C 83.1667,83.1667 82.8333,83.8333 82.5,84.5C 81.8333,84.5 81.1667,84.5 80.5,84.5C 80.9731,83.0937 81.9731,82.427 83.5,82.5 Z M 208.5,83.5 C 211.833,84.8333 214.167,87.1667 215.5,90.5C 212.833,88.5 210.5,86.1667 208.5,83.5 Z M 75.5,89.5 C 75.5,90.1667 75.5,90.8333 75.5,91.5C 74.8333,91.8333 74.1667,92.1667 73.5,92.5C 73.427,90.9731 74.0937,89.9731 75.5,89.5 Z M 68.5,98.5 C 68.573,100.027 67.9063,101.027 66.5,101.5C 66.427,99.9731 67.0937,98.9731 68.5,98.5 Z M 66.5,101.5 C 66.573,103.027 65.9063,104.027 64.5,104.5C 64.427,102.973 65.0937,101.973 66.5,101.5 Z M 225.5,103.5 C 226.906,103.973 227.573,104.973 227.5,106.5C 226.094,106.027 225.427,105.027 225.5,103.5 Z M 60.5,112.5 C 60.573,114.027 59.9063,115.027 58.5,115.5C 58.427,113.973 59.0937,112.973 60.5,112.5 Z"/></g>
<g><path style="opacity:0.004" fill="#1c1a2f" d="M 91.5,56.5 C 90.8333,56.5 90.5,56.8333 90.5,57.5C 88.0248,57.2533 88.0248,56.5866 90.5,55.5C 91.1067,55.6236 91.44,55.9569 91.5,56.5 Z"/></g>
<g><path style="opacity:0.004" fill="#1c1a2f" d="M 199.5,56.5 C 200.497,55.2875 201.497,55.4542 202.5,57C 201.906,57.4643 201.239,57.631 200.5,57.5C 199.833,57.5 199.5,57.1667 199.5,56.5 Z"/></g>
<g><path style="opacity:0.016" fill="#392c64" d="M 160.5,60.5 C 160.5,60.8333 160.5,61.1667 160.5,61.5C 150.497,60.2401 140.497,60.2401 130.5,61.5C 140.29,59.1911 150.29,58.8578 160.5,60.5 Z"/></g>
<g><path style="opacity:0.016" fill="#352757" d="M 22.5,70.5 C 22.1667,70.5 21.8333,70.5 21.5,70.5C 21.7947,68.2646 21.4614,66.2646 20.5,64.5C 20.3337,57.4921 20.5004,50.4921 21,43.5C 21.4006,52.5117 21.9006,61.5117 22.5,70.5 Z"/></g>
<g><path style="opacity:0.016" fill="#41389e" d="M 114.5,65.5 C 114.5,65.1667 114.5,64.8333 114.5,64.5C 118.5,64.8333 118.5,65.1667 114.5,65.5 Z"/></g>
<g><path style="opacity:0.016" fill="#413775" d="M 111.5,66.5 C 111.5,66.1667 111.5,65.8333 111.5,65.5C 112.5,65.5 113.5,65.5 114.5,65.5C 113.791,66.404 112.791,66.7373 111.5,66.5 Z"/></g>
<g><path style="opacity:0.008" fill="#682077" d="M 109.5,67.5 C 109.5,67.1667 109.5,66.8333 109.5,66.5C 110.167,66.5 110.833,66.5 111.5,66.5C 111.158,67.3382 110.492,67.6716 109.5,67.5 Z"/></g>
<g><path style="opacity:0.016" fill="#572e9e" d="M 106.5,68.5 C 106.5,68.1667 106.5,67.8333 106.5,67.5C 107.5,67.5 108.5,67.5 109.5,67.5C 108.791,68.404 107.791,68.7373 106.5,68.5 Z"/></g>
<g><path style="opacity:0.012" fill="#504d63" d="M 104.5,69.5 C 104.5,69.1667 104.5,68.8333 104.5,68.5C 105.167,68.5 105.833,68.5 106.5,68.5C 106.158,69.3382 105.492,69.6716 104.5,69.5 Z"/></g>
<g><path style="opacity:0.004" fill="#252430" d="M 217.5,69.5 C 218.167,68.1667 218.833,68.1667 219.5,69.5C 219.5,69.8333 219.5,70.1667 219.5,70.5C 219.167,70.5 218.833,70.5 218.5,70.5C 217.833,70.5 217.5,70.1667 217.5,69.5 Z"/></g>
<g><path style="opacity:0.004" fill="#371d4e" d="M 73.5,69.5 C 72.8333,69.5 72.5,69.8333 72.5,70.5C 70.0248,70.2533 70.0248,69.5866 72.5,68.5C 73.1067,68.6236 73.44,68.9569 73.5,69.5 Z"/></g>
<g><path style="opacity:0.012" fill="#4b495b" d="M 102.5,70.5 C 102.5,70.1667 102.5,69.8333 102.5,69.5C 103.167,69.5 103.833,69.5 104.5,69.5C 104.158,70.3382 103.492,70.6716 102.5,70.5 Z"/></g>
<g><path style="opacity:0.004" fill="#52fadd" d="M 219.5,69.5 C 221.933,70.5477 221.933,71.2144 219.5,71.5C 219.5,71.1667 219.5,70.8333 219.5,70.5C 219.5,70.1667 219.5,69.8333 219.5,69.5 Z"/></g>
<g><path style="opacity:0.008" fill="#6d257f" d="M 100.5,70.5 C 101.167,70.5 101.833,70.5 102.5,70.5C 101.833,71.8333 101.167,71.8333 100.5,70.5 Z"/></g>
<g><path style="opacity:0.016" fill="#3c277d" d="M 22.5,70.5 C 24.4127,73.04 24.746,75.7067 23.5,78.5C 23.7678,76.901 23.4345,75.5676 22.5,74.5C 22.5,73.1667 22.5,71.8333 22.5,70.5 Z"/></g>
<g><path style="opacity:0.016" fill="#3a2d5c" d="M 4.5,71.5 C 4.23219,73.099 4.56552,74.4324 5.5,75.5C 5.5,76.8333 5.5,78.1667 5.5,79.5C 3.58734,76.96 3.25401,74.2933 4.5,71.5 Z"/></g>
<g><path style="opacity:0.012" fill="#545554" d="M 93.5,75.5 C 93.5,75.1667 93.5,74.8333 93.5,74.5C 96.1667,74.8333 96.1667,75.1667 93.5,75.5 Z"/></g>
<g><path style="opacity:0.02" fill="#333366" d="M 92.5,75.5 C 92.8333,75.5 93.1667,75.5 93.5,75.5C 93.3147,76.1701 92.9813,76.1701 92.5,75.5 Z"/></g>
<g><path style="opacity:0.008" fill="#733071" d="M 90.5,77.5 C 90.5,77.1667 90.5,76.8333 90.5,76.5C 91.1667,76.5 91.8333,76.5 92.5,76.5C 92.1583,77.3382 91.4916,77.6716 90.5,77.5 Z"/></g>
<g><path style="opacity:0.024" fill="#2b2b80" d="M 89.5,77.5 C 89.8333,77.5 90.1667,77.5 90.5,77.5C 90.3147,78.1701 89.9813,78.1701 89.5,77.5 Z"/></g>
<g><path style="opacity:0.024" fill="#312577" d="M 200.5,76.5 C 201.167,76.5 201.5,76.8333 201.5,77.5C 200.503,78.7125 199.503,78.5458 198.5,77C 199.094,76.5357 199.761,76.369 200.5,76.5 Z"/></g>
<g><path style="opacity:0.016" fill="#404080" d="M 88.5,78.5 C 88.8333,78.5 89.1667,78.5 89.5,78.5C 89.3147,79.1701 88.9813,79.1701 88.5,78.5 Z"/></g>
<g><path style="opacity:0.008" fill="#2a208e" d="M 86.5,80.5 C 86.5,80.1667 86.5,79.8333 86.5,79.5C 87.1667,79.5 87.8333,79.5 88.5,79.5C 88.1583,80.3382 87.4916,80.6716 86.5,80.5 Z"/></g>
<g><path style="opacity:0.012" fill="#3a3155" d="M 229.5,81.5 C 228.833,81.5 228.5,81.1667 228.5,80.5C 228.747,78.0248 229.413,78.0248 230.5,80.5C 230.376,81.1067 230.043,81.44 229.5,81.5 Z"/></g>
<g><path style="opacity:0.016" fill="#3f33b1" d="M 5.5,79.5 C 5.83333,79.5 6.16667,79.5 6.5,79.5C 6.16667,84.8333 5.83333,84.8333 5.5,79.5 Z"/></g>
<g><path style="opacity:0.024" fill="#2b2b80" d="M 85.5,80.5 C 85.8333,80.5 86.1667,80.5 86.5,80.5C 86.3147,81.1701 85.9813,81.1701 85.5,80.5 Z"/></g>
<g><path style="opacity:0.024" fill="#312564" d="M 204.5,79.5 C 205.167,79.5 205.5,79.8333 205.5,80.5C 204.503,81.7125 203.503,81.5458 202.5,80C 203.094,79.5357 203.761,79.369 204.5,79.5 Z"/></g>
<g><path style="opacity:0.016" fill="#352362" d="M 61.5,81.5 C 60.8333,81.5 60.5,81.8333 60.5,82.5C 59.2875,81.5029 59.4542,80.5029 61,79.5C 61.4643,80.0944 61.631,80.7611 61.5,81.5 Z"/></g>
<g><path style="opacity:0.024" fill="#2b2b80" d="M 84.5,81.5 C 84.8333,81.5 85.1667,81.5 85.5,81.5C 85.3147,82.1701 84.9813,82.1701 84.5,81.5 Z"/></g>
<g><path style="opacity:0.016" fill="#592a74" d="M 8.5,86.5 C 8.5,87.5 8.5,88.5 8.5,89.5C 7.16667,88.5 7.16667,87.5 8.5,86.5 Z"/></g>
<g><path style="opacity:0.004" fill="#4813a0" d="M 80.5,84.5 C 81.1667,84.5 81.8333,84.5 82.5,84.5C 80.5,87.1667 78.1667,89.5 75.5,91.5C 75.5,90.8333 75.5,90.1667 75.5,89.5C 76.1667,89.5 76.5,89.1667 76.5,88.5C 77.1667,88.5 77.5,88.1667 77.5,87.5C 78.1667,87.5 78.5,87.1667 78.5,86.5C 79.1667,86.5 79.5,86.1667 79.5,85.5C 80.1667,85.5 80.5,85.1667 80.5,84.5 Z"/></g>
<g><path style="opacity:0.016" fill="#3c378a" d="M 8.5,89.5 C 8.83333,89.5 9.16667,89.5 9.5,89.5C 9.16667,93.5 8.83333,93.5 8.5,89.5 Z"/></g>
<g><path style="opacity:0.024" fill="#2b2b80" d="M 72.5,93.5 C 73.8333,94.1667 73.8333,94.1667 72.5,93.5 Z"/></g>
<g><path style="opacity:0.008" fill="#5b1362" d="M 218.5,93.5 C 219.167,93.5 219.5,93.8333 219.5,94.5C 219.253,96.9752 218.587,96.9752 217.5,94.5C 217.624,93.8933 217.957,93.56 218.5,93.5 Z"/></g>
<g><path style="opacity:0.004" fill="#271f3f" d="M 71.5,94.5 C 71.8333,94.5 72.1667,94.5 72.5,94.5C 72.573,96.0269 71.9063,97.0269 70.5,97.5C 70.5,96.8333 70.5,96.1667 70.5,95.5C 71.1667,95.5 71.5,95.1667 71.5,94.5 Z"/></g>
<g><path style="opacity:0.008" fill="#491f56" d="M 11.5,95.5 C 11.3284,96.4916 11.6618,97.1583 12.5,97.5C 12.5,98.5 12.5,99.5 12.5,100.5C 10.655,99.0045 10.3217,97.3379 11.5,95.5 Z"/></g>
<g><path style="opacity:0.02" fill="#333366" d="M 69.5,97.5 C 69.8333,97.5 70.1667,97.5 70.5,97.5C 70.3147,98.1701 69.9813,98.1701 69.5,97.5 Z"/></g>
<g><path style="opacity:0.012" fill="#5c458b" d="M 222.5,98.5 C 222.631,99.2389 222.464,99.9056 222,100.5C 221.308,99.5632 221.475,98.8966 222.5,98.5 Z"/></g>
<g><path style="opacity:0.008" fill="#682077" d="M 12.5,100.5 C 12.8333,100.5 13.1667,100.5 13.5,100.5C 13.5,101.167 13.5,101.833 13.5,102.5C 12.6618,102.158 12.3284,101.492 12.5,100.5 Z"/></g>
<g><path style="opacity:0.012" fill="#573f55" d="M 224.5,101.5 C 224.631,102.239 224.464,102.906 224,103.5C 223.308,102.563 223.475,101.897 224.5,101.5 Z"/></g>
<g><path style="opacity:0.016" fill="#4a4671" d="M 13.5,102.5 C 13.8333,102.5 14.1667,102.5 14.5,102.5C 14.5,103.167 14.5,103.833 14.5,104.5C 13.6618,104.158 13.3284,103.492 13.5,102.5 Z"/></g>
<g><path style="opacity:0.016" fill="#35299e" d="M 14.5,104.5 C 14.8333,104.5 15.1667,104.5 15.5,104.5C 15.5,105.5 15.5,106.5 15.5,107.5C 14.596,106.791 14.2627,105.791 14.5,104.5 Z"/></g>
<g><path style="opacity:0.02" fill="#2c256e" d="M 247.5,107.5 C 247.167,107.5 246.833,107.5 246.5,107.5C 246.833,104.833 247.167,104.833 247.5,107.5 Z"/></g>
<g><path style="opacity:0.004" fill="#3121c9" d="M 63.5,106.5 C 64.8333,107.167 64.8333,107.833 63.5,108.5C 63.5,107.833 63.5,107.167 63.5,106.5 Z"/></g>
<g><path style="opacity:0.004" fill="#171524" d="M 15.5,107.5 C 15.8333,107.5 16.1667,107.5 16.5,107.5C 16.5,108.167 16.5,108.833 16.5,109.5C 15.6618,109.158 15.3284,108.492 15.5,107.5 Z"/></g>
<g><path style="opacity:0.012" fill="#423786" d="M 43.5,112.5 C 42.3871,111.054 42.2204,109.387 43,107.5C 43.4935,109.134 43.6602,110.801 43.5,112.5 Z"/></g>
<g><path style="opacity:0.02" fill="#333366" d="M 62.5,108.5 C 62.8333,108.5 63.1667,108.5 63.5,108.5C 63.3147,109.17 62.9813,109.17 62.5,108.5 Z"/></g>
<g><path style="opacity:0.02" fill="#2c256e" d="M 247.5,107.5 C 248.525,107.897 248.692,108.563 248,109.5C 247.536,108.906 247.369,108.239 247.5,107.5 Z"/></g>
<g><path style="opacity:0.012" fill="#504d63" d="M 228.5,108.5 C 228.5,109.167 228.5,109.833 228.5,110.5C 227.167,109.833 227.167,109.167 228.5,108.5 Z"/></g>
<g><path style="opacity:0.008" fill="#1f1577" d="M 16.5,109.5 C 16.8333,109.5 17.1667,109.5 17.5,109.5C 17.5,110.167 17.5,110.833 17.5,111.5C 16.6618,111.158 16.3284,110.492 16.5,109.5 Z"/></g>
<g><path style="opacity:0.004" fill="#3121c9" d="M 61.5,110.5 C 62.525,110.897 62.6917,111.563 62,112.5C 61.5357,111.906 61.369,111.239 61.5,110.5 Z"/></g>
<g><path style="opacity:0.008" fill="#6d257f" d="M 228.5,110.5 C 228.833,110.5 229.167,110.5 229.5,110.5C 229.5,111.167 229.5,111.833 229.5,112.5C 228.662,112.158 228.328,111.492 228.5,110.5 Z"/></g>
<g><path style="opacity:0.004" fill="#3121c9" d="M 17.5,111.5 C 17.8333,111.5 18.1667,111.5 18.5,111.5C 18.5,112.167 18.5,112.833 18.5,113.5C 17.6618,113.158 17.3284,112.492 17.5,111.5 Z"/></g>
<g><path style="opacity:0.012" fill="#572755" d="M 43.5,112.5 C 43.8333,112.5 44.1667,112.5 44.5,112.5C 44.1667,115.167 43.8333,115.167 43.5,112.5 Z"/></g>
<g><path style="opacity:0.012" fill="#4d4d9b" d="M 229.5,112.5 C 229.833,112.5 230.167,112.5 230.5,112.5C 230.5,113.167 230.5,113.833 230.5,114.5C 229.662,114.158 229.328,113.492 229.5,112.5 Z"/></g>
<g><path style="opacity:0.008" fill="#682077" d="M 18.5,113.5 C 18.8333,113.5 19.1667,113.5 19.5,113.5C 19.5,114.167 19.5,114.833 19.5,115.5C 18.6618,115.158 18.3284,114.492 18.5,113.5 Z"/></g>
<g><path style="opacity:0.016" fill="#4a4671" d="M 230.5,114.5 C 230.833,114.5 231.167,114.5 231.5,114.5C 231.5,115.167 231.5,115.833 231.5,116.5C 230.662,116.158 230.328,115.492 230.5,114.5 Z"/></g>
<g><path style="opacity:0.008" fill="#1f1577" d="M 19.5,115.5 C 19.8333,115.5 20.1667,115.5 20.5,115.5C 20.5,116.167 20.5,116.833 20.5,117.5C 19.6618,117.158 19.3284,116.492 19.5,115.5 Z"/></g>
<g><path style="opacity:0.012" fill="#545554" d="M 57.5,116.5 C 58.8333,117.167 58.8333,117.167 57.5,116.5 Z"/></g>
<g><path style="opacity:0.008" fill="#241980" d="M 55.5,118.5 C 55.5,118.167 55.5,117.833 55.5,117.5C 56.1667,117.5 56.8333,117.5 57.5,117.5C 57.1583,118.338 56.4916,118.672 55.5,118.5 Z"/></g>
<g><path style="opacity:0.02" fill="#3c2352" d="M 231.5,116.5 C 231.833,116.5 232.167,116.5 232.5,116.5C 232.167,120.5 231.833,120.5 231.5,116.5 Z"/></g>
<g><path style="opacity:0.008" fill="#682077" d="M 20.5,117.5 C 20.8333,117.5 21.1667,117.5 21.5,117.5C 21.5,118.167 21.5,118.833 21.5,119.5C 20.6618,119.158 20.3284,118.492 20.5,117.5 Z"/></g>
<g><path style="opacity:0.016" fill="#3c395c" d="M 49.5,117.5 C 51.2646,118.461 53.2646,118.795 55.5,118.5C 52.8223,119.909 50.1557,119.743 47.5,118C 48.0944,117.536 48.7611,117.369 49.5,117.5 Z"/></g>
<g><path style="opacity:0.004" fill="#3121c9" d="M 21.5,119.5 C 21.8333,119.5 22.1667,119.5 22.5,119.5C 22.5,120.167 22.5,120.833 22.5,121.5C 21.6618,121.158 21.3284,120.492 21.5,119.5 Z"/></g>
<g><path style="opacity:0.004" fill="#3121c9" d="M 22.5,121.5 C 22.8333,121.5 23.1667,121.5 23.5,121.5C 23.1667,124.167 22.8333,124.167 22.5,121.5 Z"/></g>
<g><path style="opacity:0.016" fill="#4035a8" d="M 25.5,124.5 C 25.5,125.167 25.5,125.833 25.5,126.5C 24.1667,125.833 24.1667,125.167 25.5,124.5 Z"/></g>
<g><path style="opacity:0.012" fill="#504d63" d="M 25.5,126.5 C 25.8333,126.5 26.1667,126.5 26.5,126.5C 26.5,127.167 26.5,127.833 26.5,128.5C 25.6618,128.158 25.3284,127.492 25.5,126.5 Z"/></g>
<g><path style="opacity:0.008" fill="#1f1577" d="M 26.5,128.5 C 26.8333,128.5 27.1667,128.5 27.5,128.5C 27.5,129.167 27.5,129.833 27.5,130.5C 26.6618,130.158 26.3284,129.492 26.5,128.5 Z"/></g>
<g><path style="opacity:0.016" fill="#352c85" d="M 235.5,125.5 C 235.263,126.791 235.596,127.791 236.5,128.5C 236.5,129.833 236.5,131.167 236.5,132.5C 234.688,130.287 234.355,127.953 235.5,125.5 Z"/></g>
<g><path style="opacity:0.004" fill="#1c1a2f" d="M 27.5,130.5 C 27.8333,130.5 28.1667,130.5 28.5,130.5C 29.1667,130.5 29.5,130.833 29.5,131.5C 29.5,132.167 29.5,132.833 29.5,133.5C 28.0937,133.027 27.427,132.027 27.5,130.5 Z"/></g>
<g><path style="opacity:0.02" fill="#31275f" d="M 236.5,132.5 C 236.833,132.5 237.167,132.5 237.5,132.5C 237.5,134.5 237.5,136.5 237.5,138.5C 236.539,136.735 236.205,134.735 236.5,132.5 Z"/></g>
<g><path style="opacity:0.008" fill="#6d257f" d="M 29.5,133.5 C 29.8333,133.5 30.1667,133.5 30.5,133.5C 30.1667,136.167 29.8333,136.167 29.5,133.5 Z"/></g>
<g><path style="opacity:0.02" fill="#4f319a" d="M 256.5,138.5 C 256.167,138.5 255.833,138.5 255.5,138.5C 255.833,130.5 256.167,130.5 256.5,138.5 Z"/></g>
<g><path style="opacity:0.016" fill="#4035a8" d="M 32.5,136.5 C 32.5,137.167 32.5,137.833 32.5,138.5C 31.1667,137.833 31.1667,137.167 32.5,136.5 Z"/></g>
<g><path style="opacity:0.016" fill="#3d2d75" d="M 237.5,138.5 C 238.629,140.628 238.796,142.961 238,145.5C 237.503,143.19 237.337,140.857 237.5,138.5 Z"/></g>
<g><path style="opacity:0.004" fill="#3121c9" d="M 32.5,138.5 C 32.8333,138.5 33.1667,138.5 33.5,138.5C 33.1667,141.167 32.8333,141.167 32.5,138.5 Z"/></g>
<g><path style="opacity:0.008" fill="#733071" d="M 35.5,141.5 C 35.631,142.239 35.4643,142.906 35,143.5C 34.3083,142.563 34.475,141.897 35.5,141.5 Z"/></g>
<g><path style="opacity:0.012" fill="#664563" d="M 37.5,144.5 C 37.5,145.167 37.5,145.833 37.5,146.5C 36.1667,145.833 36.1667,145.167 37.5,144.5 Z"/></g>
<g><path style="opacity:0.012" fill="#594180" d="M 256.5,138.5 C 257.643,141.976 257.81,145.642 257,149.5C 256.501,145.848 256.335,142.182 256.5,138.5 Z"/></g>
<g><path style="opacity:0.004" fill="#271f3f" d="M 37.5,146.5 C 37.8333,146.5 38.1667,146.5 38.5,146.5C 39.1667,146.5 39.5,146.833 39.5,147.5C 38.6987,149.793 38.032,149.46 37.5,146.5 Z"/></g>
<g><path style="opacity:0.012" fill="#573f55" d="M 41.5,150.5 C 41.631,151.239 41.4643,151.906 41,152.5C 40.3083,151.563 40.475,150.897 41.5,150.5 Z"/></g>
<g><path style="opacity:0.016" fill="#3c3970" d="M 239.5,162.5 C 239.167,162.5 238.833,162.5 238.5,162.5C 238.833,141.167 239.167,141.167 239.5,162.5 Z"/></g>
<g><path style="opacity:0.02" fill="#2b2353" d="M 63.5,153.5 C 62.8333,153.5 62.5,153.167 62.5,152.5C 62.7467,150.025 63.4134,150.025 64.5,152.5C 64.3764,153.107 64.0431,153.44 63.5,153.5 Z"/></g>
<g><path style="opacity:0.008" fill="#1b0a72" d="M 257.5,160.5 C 257.335,157.15 257.502,153.817 258,150.5C 258.808,154.027 258.641,157.36 257.5,160.5 Z"/></g>
<g><path style="opacity:0.008" fill="#2a208e" d="M 43.5,153.5 C 43.631,154.239 43.4643,154.906 43,155.5C 42.3083,154.563 42.475,153.897 43.5,153.5 Z"/></g>
<g><path style="opacity:0.02" fill="#3f2952" d="M 66.5,157.5 C 65.8333,157.5 65.5,157.167 65.5,156.5C 65.7467,154.025 66.4134,154.025 67.5,156.5C 67.3764,157.107 67.0431,157.44 66.5,157.5 Z"/></g>
<g><path style="opacity:0.008" fill="#241980" d="M 48.5,160.5 C 48.631,161.239 48.4643,161.906 48,162.5C 47.3083,161.563 47.475,160.897 48.5,160.5 Z"/></g>
<g><path style="opacity:0.008" fill="#241980" d="M 51.5,164.5 C 51.631,165.239 51.4643,165.906 51,166.5C 50.3083,165.563 50.475,164.897 51.5,164.5 Z"/></g>
<g><path style="opacity:0.016" fill="#3f2e5c" d="M 238.5,162.5 C 238.802,165.059 238.468,167.393 237.5,169.5C 237.198,166.941 237.532,164.607 238.5,162.5 Z"/></g>
<g><path style="opacity:0.016" fill="#41336c" d="M 257.5,160.5 C 257.813,164.042 257.479,167.375 256.5,170.5C 256.187,166.958 256.521,163.625 257.5,160.5 Z"/></g>
<g><path style="opacity:0.008" fill="#3f1292" d="M 78.5,172.5 C 77.8333,172.5 77.5,172.167 77.5,171.5C 77.7467,169.025 78.4134,169.025 79.5,171.5C 79.3764,172.107 79.0431,172.44 78.5,172.5 Z"/></g>
<g><path style="opacity:0.02" fill="#49327c" d="M 256.5,170.5 C 256.66,172.199 256.494,173.866 256,175.5C 255.22,173.613 255.387,171.946 256.5,170.5 Z"/></g>
<g><path style="opacity:0.016" fill="#383167" d="M 237.5,169.5 C 237.66,171.199 237.494,172.866 237,174.5C 236.22,172.613 236.387,170.946 237.5,169.5 Z"/></g>
<g><path style="opacity:0.004" fill="#271f3f" d="M 57.5,172.5 C 58.1667,172.5 58.5,172.833 58.5,173.5C 58.2533,175.975 57.5866,175.975 56.5,173.5C 56.6236,172.893 56.9569,172.56 57.5,172.5 Z"/></g>
<g><path style="opacity:0.991" fill="#3e3172" d="M 55.5,182.5 C 60.3573,200.353 70.024,215.02 84.5,226.5C 84.5,227.167 84.8333,227.5 85.5,227.5C 89.6243,231.281 94.2909,234.281 99.5,236.5C 103.224,239.639 107.557,241.639 112.5,242.5C 118.931,243.933 122.598,247.933 123.5,254.5C 122.662,254.842 122.328,255.508 122.5,256.5C 121.833,256.5 121.5,256.833 121.5,257.5C 120.833,257.5 120.5,257.833 120.5,258.5C 119.833,258.5 119.5,258.833 119.5,259.5C 118.508,259.328 117.842,259.662 117.5,260.5C 113.049,259.851 108.716,258.684 104.5,257C 96.7789,253.747 89.4456,249.914 82.5,245.5C 82.5,244.833 82.1667,244.5 81.5,244.5C 78.4797,241.484 75.1464,238.817 71.5,236.5C 71.5,235.833 71.1667,235.5 70.5,235.5C 69.1667,233.5 67.5,231.833 65.5,230.5C 65.5,229.833 65.1667,229.5 64.5,229.5C 64.5,228.833 64.1667,228.5 63.5,228.5C 63.5,227.833 63.1667,227.5 62.5,227.5C 61.1363,225.809 59.803,224.142 58.5,222.5C 58.5,221.833 58.1667,221.5 57.5,221.5C 56.1891,218.865 54.5224,216.531 52.5,214.5C 52.0679,213.29 51.4013,212.29 50.5,211.5C 50.6716,210.508 50.3382,209.842 49.5,209.5C 49.0679,208.29 48.4013,207.29 47.5,206.5C 47.6716,205.508 47.3382,204.842 46.5,204.5C 46.6716,203.508 46.3382,202.842 45.5,202.5C 45.6716,201.508 45.3382,200.842 44.5,200.5C 44.6716,199.508 44.3382,198.842 43.5,198.5C 43.7373,197.209 43.404,196.209 42.5,195.5C 42.6716,194.508 42.3382,193.842 41.5,193.5C 41.7373,192.209 41.404,191.209 40.5,190.5C 40.7373,189.209 40.404,188.209 39.5,187.5C 36.6983,176.47 40.6983,172.304 51.5,175C 53.0042,177.514 54.3376,180.014 55.5,182.5 Z"/></g>
<g><path style="opacity:0.016" fill="#53387f" d="M 235.5,175.5 C 236.573,176.251 236.74,177.251 236,178.5C 235.517,177.552 235.351,176.552 235.5,175.5 Z"/></g>
<g><path style="opacity:0.02" fill="#231b57" d="M 84.5,179.5 C 83.8333,179.5 83.5,179.167 83.5,178.5C 83.7467,176.025 84.4134,176.025 85.5,178.5C 85.3764,179.107 85.0431,179.44 84.5,179.5 Z"/></g>
<g><path style="opacity:0.02" fill="#343258" d="M 36.5,178.5 C 37.6225,180.288 37.7891,182.288 37,184.5C 36.5045,182.527 36.3379,180.527 36.5,178.5 Z"/></g>
<g><path style="opacity:0.016" fill="#53387f" d="M 55.5,182.5 C 55.3505,181.448 55.5172,180.448 56,179.5C 56.7401,180.749 56.5735,181.749 55.5,182.5 Z"/></g>
<g><path style="opacity:0.012" fill="#453669" d="M 62.5,178.5 C 63.1667,178.5 63.5,178.833 63.5,179.5C 63.2533,181.975 62.5866,181.975 61.5,179.5C 61.6236,178.893 61.9569,178.56 62.5,178.5 Z"/></g>
<g><path style="opacity:0.004" fill="#211e3c" d="M 252.5,183.5 C 253.268,182.737 253.768,181.737 254,180.5C 254.484,182.913 254.15,185.246 253,187.5C 252.51,186.207 252.343,184.873 252.5,183.5 Z"/></g>
<g><path style="opacity:0.008" fill="#5d1762" d="M 67.5,184.5 C 68.1667,184.5 68.5,184.833 68.5,185.5C 68.2533,187.975 67.5866,187.975 66.5,185.5C 66.6236,184.893 66.9569,184.56 67.5,184.5 Z"/></g>
<g><path style="opacity:0.02" fill="#442273" d="M 39.5,187.5 C 39.5,188.5 39.5,189.5 39.5,190.5C 38.1667,189.5 38.1667,188.5 39.5,187.5 Z"/></g>
<g><path style="opacity:0.016" fill="#593e75" d="M 39.5,190.5 C 39.8333,190.5 40.1667,190.5 40.5,190.5C 40.5,191.5 40.5,192.5 40.5,193.5C 39.596,192.791 39.2627,191.791 39.5,190.5 Z"/></g>
<g><path style="opacity:0.016" fill="#3c2765" d="M 93.5,187.5 C 95.914,188.911 97.5806,190.911 98.5,193.5C 98.1667,193.5 97.8333,193.5 97.5,193.5C 96.8333,193.5 96.5,193.167 96.5,192.5C 95.8333,192.5 95.5,192.167 95.5,191.5C 94.8333,191.5 94.5,191.167 94.5,190.5C 93.8333,190.5 93.5,190.167 93.5,189.5C 93.5,188.833 93.5,188.167 93.5,187.5 Z"/></g>
<g><path style="opacity:0.02" fill="#2c256e" d="M 231.5,192.5 C 231.167,192.5 230.833,192.5 230.5,192.5C 230.833,189.833 231.167,189.833 231.5,192.5 Z"/></g>
<g><path style="opacity:0.004" fill="#211f39" d="M 98.5,194.5 C 98.5,194.167 98.5,193.833 98.5,193.5C 100.424,193.711 100.757,194.377 99.5,195.5C 98.8333,195.5 98.5,195.167 98.5,194.5 Z"/></g>
<g><path style="opacity:0.02" fill="#382d96" d="M 230.5,192.5 C 230.631,193.239 230.464,193.906 230,194.5C 229.308,193.563 229.475,192.897 230.5,192.5 Z"/></g>
<g><path style="opacity:0.016" fill="#2d2480" d="M 249.5,192.5 C 250.833,193.5 250.833,194.5 249.5,195.5C 249.5,194.5 249.5,193.5 249.5,192.5 Z"/></g>
<g><path style="opacity:0.02" fill="#353569" d="M 263.5,195.5 C 262.378,193.712 262.211,191.712 263,189.5C 263.495,191.473 263.662,193.473 263.5,195.5 Z"/></g>
<g><path style="opacity:0.012" fill="#504d63" d="M 40.5,193.5 C 40.8333,193.5 41.1667,193.5 41.5,193.5C 41.5,194.167 41.5,194.833 41.5,195.5C 40.6618,195.158 40.3284,194.492 40.5,193.5 Z"/></g>
<g><path style="opacity:0.004" fill="#2a2244" d="M 75.5,193.5 C 76.1667,193.5 76.5,193.833 76.5,194.5C 76.2533,196.975 75.5866,196.975 74.5,194.5C 74.6236,193.893 74.9569,193.56 75.5,193.5 Z"/></g>
<g><path style="opacity:0.016" fill="#35299e" d="M 41.5,195.5 C 41.8333,195.5 42.1667,195.5 42.5,195.5C 42.5,196.5 42.5,197.5 42.5,198.5C 41.596,197.791 41.2627,196.791 41.5,195.5 Z"/></g>
<g><path style="opacity:0.004" fill="#1c1a2f" d="M 229.5,197.5 C 227.108,198.368 226.941,197.701 229,195.5C 229.464,196.094 229.631,196.761 229.5,197.5 Z"/></g>
<g><path style="opacity:0.012" fill="#504d63" d="M 248.5,195.5 C 248.833,195.5 249.167,195.5 249.5,195.5C 249.672,196.492 249.338,197.158 248.5,197.5C 248.5,196.833 248.5,196.167 248.5,195.5 Z"/></g>
<g><path style="opacity:0.02" fill="#2e236e" d="M 263.5,195.5 C 263.833,195.5 264.167,195.5 264.5,195.5C 264.5,196.5 264.5,197.5 264.5,198.5C 263.596,197.791 263.263,196.791 263.5,195.5 Z"/></g>
<g><path style="opacity:0.016" fill="#383554" d="M 247.5,197.5 C 247.833,197.5 248.167,197.5 248.5,197.5C 248.737,198.791 248.404,199.791 247.5,200.5C 247.5,199.5 247.5,198.5 247.5,197.5 Z"/></g>
<g><path style="opacity:0.008" fill="#1f1577" d="M 42.5,198.5 C 42.8333,198.5 43.1667,198.5 43.5,198.5C 43.5,199.167 43.5,199.833 43.5,200.5C 42.6618,200.158 42.3284,199.492 42.5,198.5 Z"/></g>
<g><path style="opacity:0.004" fill="#32256c" d="M 104.5,200.5 C 104.897,199.475 105.563,199.308 106.5,200C 108.373,201.704 110.04,203.537 111.5,205.5C 110.833,205.5 110.167,205.5 109.5,205.5C 108.833,205.5 108.5,205.167 108.5,204.5C 107.833,204.5 107.5,204.167 107.5,203.5C 106.833,203.5 106.5,203.167 106.5,202.5C 105.833,202.5 105.5,202.167 105.5,201.5C 104.833,201.5 104.5,201.167 104.5,200.5 Z"/></g>
<g><path style="opacity:0.004" fill="#3121c9" d="M 264.5,198.5 C 264.833,198.5 265.167,198.5 265.5,198.5C 265.5,199.167 265.5,199.833 265.5,200.5C 264.662,200.158 264.328,199.492 264.5,198.5 Z"/></g>
<g><path style="opacity:0.02" fill="#333366" d="M 247.5,200.5 C 246.833,201.167 246.833,201.167 247.5,200.5 Z"/></g>
<g><path style="opacity:0.012" fill="#504d63" d="M 43.5,200.5 C 43.8333,200.5 44.1667,200.5 44.5,200.5C 44.5,201.167 44.5,201.833 44.5,202.5C 43.6618,202.158 43.3284,201.492 43.5,200.5 Z"/></g>
<g><path style="opacity:0.012" fill="#4b495b" d="M 265.5,200.5 C 265.833,200.5 266.167,200.5 266.5,200.5C 266.167,203.167 265.833,203.167 265.5,200.5 Z"/></g>
<g><path style="opacity:0.008" fill="#6d257f" d="M 44.5,202.5 C 44.8333,202.5 45.1667,202.5 45.5,202.5C 45.5,203.167 45.5,203.833 45.5,204.5C 44.6618,204.158 44.3284,203.492 44.5,202.5 Z"/></g>
<g><path style="opacity:0.004" fill="#3121c9" d="M 245.5,204.5 C 245.369,203.761 245.536,203.094 246,202.5C 246.692,203.437 246.525,204.103 245.5,204.5 Z"/></g>
<g><path style="opacity:0.02" fill="#2b2353" d="M 225.5,204.5 C 224.833,204.5 224.5,204.833 224.5,205.5C 223.287,204.503 223.454,203.503 225,202.5C 225.464,203.094 225.631,203.761 225.5,204.5 Z"/></g>
<g><path style="opacity:0.02" fill="#333366" d="M 244.5,204.5 C 244.833,204.5 245.167,204.5 245.5,204.5C 245.315,205.17 244.981,205.17 244.5,204.5 Z"/></g>
<g><path style="opacity:0.004" fill="#201c34" d="M 287.5,207.5 C 287.672,206.508 287.338,205.842 286.5,205.5C 286.234,203.653 286.568,202.986 287.5,203.5C 288.705,204.995 288.705,206.328 287.5,207.5 Z"/></g>
<g><path style="opacity:0.008" fill="#6d257f" d="M 45.5,204.5 C 45.8333,204.5 46.1667,204.5 46.5,204.5C 46.5,205.167 46.5,205.833 46.5,206.5C 45.6618,206.158 45.3284,205.492 45.5,204.5 Z"/></g>
<g><path style="opacity:0.02" fill="#3c2352" d="M 268.5,204.5 C 268.649,205.552 268.483,206.552 268,207.5C 267.26,206.251 267.427,205.251 268.5,204.5 Z"/></g>
<g><path style="opacity:0.016" fill="#404080" d="M 243.5,206.5 C 244.833,207.167 244.833,207.167 243.5,206.5 Z"/></g>
<g><path style="opacity:0.004" fill="#3121c9" d="M 46.5,206.5 C 46.8333,206.5 47.1667,206.5 47.5,206.5C 47.1667,209.167 46.8333,209.167 46.5,206.5 Z"/></g>
<g><path style="opacity:0.012" fill="#545554" d="M 242.5,207.5 C 242.833,207.5 243.167,207.5 243.5,207.5C 243.672,208.492 243.338,209.158 242.5,209.5C 242.5,208.833 242.5,208.167 242.5,207.5 Z"/></g>
<g><path style="opacity:0.008" fill="#2c1e5d" d="M 221.5,210.5 C 220.833,210.5 220.5,210.833 220.5,211.5C 219.287,210.503 219.454,209.503 221,208.5C 221.464,209.094 221.631,209.761 221.5,210.5 Z"/></g>
<g><path style="opacity:0.016" fill="#342d80" d="M 49.5,209.5 C 49.5,210.167 49.5,210.833 49.5,211.5C 48.1667,210.833 48.1667,210.167 49.5,209.5 Z"/></g>
<g><path style="opacity:0.008" fill="#1f1577" d="M 241.5,209.5 C 241.833,209.5 242.167,209.5 242.5,209.5C 242.672,210.492 242.338,211.158 241.5,211.5C 241.5,210.833 241.5,210.167 241.5,209.5 Z"/></g>
<g><path style="opacity:0.02" fill="#333366" d="M 240.5,211.5 C 240.833,211.5 241.167,211.5 241.5,211.5C 241.315,212.17 240.981,212.17 240.5,211.5 Z"/></g>
<g><path style="opacity:0.004" fill="#3626d3" d="M 49.5,211.5 C 49.8333,211.5 50.1667,211.5 50.5,211.5C 50.1667,214.167 49.8333,214.167 49.5,211.5 Z"/></g>
<g><path style="opacity:0.012" fill="#545554" d="M 239.5,212.5 C 239.833,212.5 240.167,212.5 240.5,212.5C 240.672,213.492 240.338,214.158 239.5,214.5C 239.5,213.833 239.5,213.167 239.5,212.5 Z"/></g>
<g><path style="opacity:0.004" fill="#271f3f" d="M 119.5,214.5 C 120.779,213.285 121.779,213.618 122.5,215.5C 121.833,215.5 121.167,215.5 120.5,215.5C 119.833,215.5 119.5,215.167 119.5,214.5 Z"/></g>
<g><path style="opacity:0.02" fill="#333366" d="M 238.5,214.5 C 238.833,214.5 239.167,214.5 239.5,214.5C 239.315,215.17 238.981,215.17 238.5,214.5 Z"/></g>
<g><path style="opacity:0.008" fill="#241980" d="M 52.5,214.5 C 52.631,215.239 52.4643,215.906 52,216.5C 51.3083,215.563 51.475,214.897 52.5,214.5 Z"/></g>
<g><path style="opacity:0.02" fill="#2f2b5f" d="M 217.5,213.5 C 217.5,214.167 217.5,214.833 217.5,215.5C 216.833,215.5 216.5,215.833 216.5,216.5C 215.285,215.221 215.618,214.221 217.5,213.5 Z"/></g>
<g><path style="opacity:0.012" fill="#573f55" d="M 237.5,215.5 C 237.833,215.5 238.167,215.5 238.5,215.5C 238.672,216.492 238.338,217.158 237.5,217.5C 237.5,216.833 237.5,216.167 237.5,215.5 Z"/></g>
<g><path style="opacity:0.02" fill="#512468" d="M 272.5,215.5 C 272.649,216.552 272.483,217.552 272,218.5C 271.26,217.251 271.427,216.251 272.5,215.5 Z"/></g>
<g><path style="opacity:0.02" fill="#333366" d="M 236.5,217.5 C 236.833,217.5 237.167,217.5 237.5,217.5C 237.315,218.17 236.981,218.17 236.5,217.5 Z"/></g>
<g><path style="opacity:0.008" fill="#241980" d="M 235.5,218.5 C 235.833,218.5 236.167,218.5 236.5,218.5C 236.672,219.492 236.338,220.158 235.5,220.5C 235.5,219.833 235.5,219.167 235.5,218.5 Z"/></g>
<g><path style="opacity:0.016" fill="#404080" d="M 234.5,220.5 C 234.833,220.5 235.167,220.5 235.5,220.5C 235.315,221.17 234.981,221.17 234.5,220.5 Z"/></g>
<g><path style="opacity:0.024" fill="#2b2b80" d="M 233.5,221.5 C 233.833,221.5 234.167,221.5 234.5,221.5C 234.315,222.17 233.981,222.17 233.5,221.5 Z"/></g>
<g><path style="opacity:0.004" fill="#1f1e27" d="M 57.5,221.5 C 58.1667,221.5 58.5,221.833 58.5,222.5C 58.2533,224.975 57.5866,224.975 56.5,222.5C 56.6236,221.893 56.9569,221.56 57.5,221.5 Z"/></g>
<g><path style="opacity:0.004" fill="#201327" d="M 232.5,222.5 C 232.833,222.5 233.167,222.5 233.5,222.5C 233.573,224.027 232.906,225.027 231.5,225.5C 231.5,224.833 231.5,224.167 231.5,223.5C 232.167,223.5 232.5,223.167 232.5,222.5 Z"/></g>
<g><path style="opacity:0.004" fill="#291d35" d="M 104.5,222.5 C 105.167,222.5 105.5,222.833 105.5,223.5C 106.167,223.5 106.5,223.833 106.5,224.5C 104.93,225.559 103.597,225.059 102.5,223C 103.094,222.536 103.761,222.369 104.5,222.5 Z"/></g>
<g><path style="opacity:0.016" fill="#404080" d="M 230.5,225.5 C 230.833,225.5 231.167,225.5 231.5,225.5C 231.315,226.17 230.981,226.17 230.5,225.5 Z"/></g>
<g><path style="opacity:0.008" fill="#49115f" d="M 84.5,226.5 C 85.4971,225.287 86.4971,225.454 87.5,227C 86.9056,227.464 86.2389,227.631 85.5,227.5C 84.8333,227.5 84.5,227.167 84.5,226.5 Z"/></g>
<g><path style="opacity:0.02" fill="#333366" d="M 229.5,226.5 C 229.833,226.5 230.167,226.5 230.5,226.5C 230.315,227.17 229.981,227.17 229.5,226.5 Z"/></g>
<g><path style="opacity:0.024" fill="#2b2b80" d="M 228.5,227.5 C 228.833,227.5 229.167,227.5 229.5,227.5C 229.315,228.17 228.981,228.17 228.5,227.5 Z"/></g>
<g><path style="opacity:0.004" fill="#1c1a2f" d="M 202.5,229.5 C 201.833,229.5 201.5,229.833 201.5,230.5C 199.025,230.253 199.025,229.587 201.5,228.5C 202.107,228.624 202.44,228.957 202.5,229.5 Z"/></g>
<g><path style="opacity:0.02" fill="#333366" d="M 227.5,228.5 C 227.833,228.5 228.167,228.5 228.5,228.5C 228.315,229.17 227.981,229.17 227.5,228.5 Z"/></g>
<g><path style="opacity:0.008" fill="#1a0f52" d="M 62.5,227.5 C 63.1667,227.5 63.5,227.833 63.5,228.5C 64.1667,228.5 64.5,228.833 64.5,229.5C 65.1667,229.5 65.5,229.833 65.5,230.5C 65.631,231.239 65.4643,231.906 65,232.5C 64,231.5 63,230.5 62,229.5C 61.3083,228.563 61.475,227.897 62.5,227.5 Z"/></g>
<g><path style="opacity:0.016" fill="#523c82" d="M 295.5,234.5 C 295.167,234.5 294.833,234.5 294.5,234.5C 294.833,226.5 295.167,226.5 295.5,234.5 Z"/></g>
<g><path style="opacity:0.02" fill="#343075" d="M 275.5,230.5 C 276.598,231.601 276.765,232.934 276,234.5C 275.51,233.207 275.343,231.873 275.5,230.5 Z"/></g>
<g><path style="opacity:0.02" fill="#362e5a" d="M 114.5,231.5 C 115.167,231.5 115.5,231.833 115.5,232.5C 114.503,233.713 113.503,233.546 112.5,232C 113.094,231.536 113.761,231.369 114.5,231.5 Z"/></g>
<g><path style="opacity:0.004" fill="#1c1a2f" d="M 196.5,233.5 C 195.833,233.5 195.5,233.833 195.5,234.5C 193.025,234.253 193.025,233.587 195.5,232.5C 196.107,232.624 196.44,232.957 196.5,233.5 Z"/></g>
<g><path style="opacity:0.004" fill="#252036" d="M 226.5,229.5 C 226.833,229.5 227.167,229.5 227.5,229.5C 226.5,232.5 224.5,234.5 221.5,235.5C 221.5,235.167 221.5,234.833 221.5,234.5C 222.167,234.5 222.5,234.167 222.5,233.5C 223.167,233.5 223.5,233.167 223.5,232.5C 224.167,232.5 224.5,232.167 224.5,231.5C 225.167,231.5 225.5,231.167 225.5,230.5C 226.167,230.5 226.5,230.167 226.5,229.5 Z"/></g>
<g><path style="opacity:0.008" fill="#30198f" d="M 70.5,235.5 C 71.1667,235.5 71.5,235.833 71.5,236.5C 70.5029,237.713 69.5029,237.546 68.5,236C 69.0944,235.536 69.7611,235.369 70.5,235.5 Z"/></g>
<g><path style="opacity:0.004" fill="#171524" d="M 99.5,236.5 C 100.167,235.167 100.833,235.167 101.5,236.5C 100.833,236.5 100.167,236.5 99.5,236.5 Z"/></g>
<g><path style="opacity:0.02" fill="#333366" d="M 220.5,235.5 C 220.833,235.5 221.167,235.5 221.5,235.5C 221.315,236.17 220.981,236.17 220.5,235.5 Z"/></g>
<g><path style="opacity:0.004" fill="#171524" d="M 101.5,236.5 C 102.492,236.328 103.158,236.662 103.5,237.5C 102.508,237.672 101.842,237.338 101.5,236.5 Z"/></g>
<g><path style="opacity:0.02" fill="#333366" d="M 219.5,236.5 C 219.833,236.5 220.167,236.5 220.5,236.5C 220.315,237.17 219.981,237.17 219.5,236.5 Z"/></g>
<g><path style="opacity:0.02" fill="#333366" d="M 103.5,237.5 C 104.833,238.167 104.833,238.167 103.5,237.5 Z"/></g>
<g><path style="opacity:0.02" fill="#2f1e57" d="M 120.5,236.5 C 121.167,236.5 121.5,236.833 121.5,237.5C 120.503,238.713 119.503,238.546 118.5,237C 119.094,236.536 119.761,236.369 120.5,236.5 Z"/></g>
<g><path style="opacity:0.024" fill="#2b2b55" d="M 218.5,237.5 C 218.833,237.5 219.167,237.5 219.5,237.5C 219.315,238.17 218.981,238.17 218.5,237.5 Z"/></g>
<g><path style="opacity:0.016" fill="#3e2d7b" d="M 277.5,235.5 C 277.666,242.841 277.5,250.174 277,257.5C 276.178,249.988 276.345,242.655 277.5,235.5 Z"/></g>
<g><path style="opacity:0.004" fill="#3121c9" d="M 105.5,239.5 C 105.897,238.475 106.563,238.308 107.5,239C 106.906,239.464 106.239,239.631 105.5,239.5 Z"/></g>
<g><path style="opacity:0.02" fill="#333366" d="M 217.5,238.5 C 217.833,238.5 218.167,238.5 218.5,238.5C 218.315,239.17 217.981,239.17 217.5,238.5 Z"/></g>
<g><path style="opacity:0.016" fill="#404080" d="M 216.5,239.5 C 216.833,239.5 217.167,239.5 217.5,239.5C 217.315,240.17 216.981,240.17 216.5,239.5 Z"/></g>
<g><path style="opacity:0.004" fill="#1f1e27" d="M 214.5,240.5 C 215.167,240.5 215.833,240.5 216.5,240.5C 215.779,242.382 214.779,242.715 213.5,241.5C 214.167,241.5 214.5,241.167 214.5,240.5 Z"/></g>
<g><path style="opacity:0.016" fill="#404080" d="M 112.5,242.5 C 112.897,241.475 113.563,241.308 114.5,242C 113.906,242.464 113.239,242.631 112.5,242.5 Z"/></g>
<g><path style="opacity:0.004" fill="#1f1e27" d="M 130.5,244.5 C 131.167,244.5 131.5,244.833 131.5,245.5C 130.503,246.713 129.503,246.546 128.5,245C 129.094,244.536 129.761,244.369 130.5,244.5 Z"/></g>
<g><path style="opacity:0.004" fill="#201e36" d="M 159.5,245.5 C 159.5,245.167 159.5,244.833 159.5,244.5C 162.46,245.032 162.793,245.699 160.5,246.5C 159.833,246.5 159.5,246.167 159.5,245.5 Z"/></g>
<g><path style="opacity:0.02" fill="#442257" d="M 81.5,244.5 C 82.1667,244.5 82.5,244.833 82.5,245.5C 81.5029,246.713 80.5029,246.546 79.5,245C 80.0944,244.536 80.7611,244.369 81.5,244.5 Z"/></g>
<g><path style="opacity:0.02" fill="#333366" d="M 208.5,245.5 C 209.833,246.167 209.833,246.167 208.5,245.5 Z"/></g>
<g><path style="opacity:0.004" fill="#271438" d="M 206.5,246.5 C 207.167,246.5 207.833,246.5 208.5,246.5C 208.027,247.906 207.027,248.573 205.5,248.5C 205.5,248.167 205.5,247.833 205.5,247.5C 206.167,247.5 206.5,247.167 206.5,246.5 Z"/></g>
<g><path style="opacity:0.008" fill="#762c8d" d="M 203.5,249.5 C 203.5,249.167 203.5,248.833 203.5,248.5C 204.167,248.5 204.833,248.5 205.5,248.5C 205.158,249.338 204.492,249.672 203.5,249.5 Z"/></g>
<g><path style="opacity:0.004" fill="#392c52" d="M 181.5,249.5 C 181.607,251.379 181.107,251.712 180,250.5C 179.333,248.5 179.333,246.5 180,244.5C 180.198,246.382 180.698,248.048 181.5,249.5 Z"/></g>
<g><path style="opacity:0.02" fill="#333366" d="M 202.5,249.5 C 202.833,249.5 203.167,249.5 203.5,249.5C 203.315,250.17 202.981,250.17 202.5,249.5 Z"/></g>
<g><path style="opacity:0.004" fill="#171524" d="M 200.5,251.5 C 200.5,251.167 200.5,250.833 200.5,250.5C 201.167,250.5 201.833,250.5 202.5,250.5C 202.158,251.338 201.492,251.672 200.5,251.5 Z"/></g>
<g><path style="opacity:0.008" fill="#14067c" d="M 124.5,254.5 C 124.343,253.127 124.51,251.793 125,250.5C 125.765,252.066 125.598,253.399 124.5,254.5 Z"/></g>
<g><path style="opacity:0.012" fill="#504d63" d="M 198.5,252.5 C 198.5,252.167 198.5,251.833 198.5,251.5C 199.167,251.5 199.833,251.5 200.5,251.5C 200.158,252.338 199.492,252.672 198.5,252.5 Z"/></g>
<g><path style="opacity:0.016" fill="#342d80" d="M 196.5,253.5 C 196.5,253.167 196.5,252.833 196.5,252.5C 197.167,252.5 197.833,252.5 198.5,252.5C 198.158,253.338 197.492,253.672 196.5,253.5 Z"/></g>
<g><path style="opacity:0.016" fill="#3c2a5f" d="M 295.5,234.5 C 297.807,242.32 297.974,250.32 296,258.5C 296.244,250.575 296.077,242.575 295.5,234.5 Z"/></g>
<g><path style="opacity:0.016" fill="#2d2c54" d="M 194.5,254.5 C 194.5,254.167 194.5,253.833 194.5,253.5C 195.167,253.5 195.833,253.5 196.5,253.5C 196.158,254.338 195.492,254.672 194.5,254.5 Z"/></g>
<g><path style="opacity:0.02" fill="#333366" d="M 193.5,254.5 C 193.833,254.5 194.167,254.5 194.5,254.5C 194.315,255.17 193.981,255.17 193.5,254.5 Z"/></g>
<g><path style="opacity:0.012" fill="#504d63" d="M 123.5,254.5 C 123.833,254.5 124.167,254.5 124.5,254.5C 124.672,255.492 124.338,256.158 123.5,256.5C 123.5,255.833 123.5,255.167 123.5,254.5 Z"/></g>
<g><path style="opacity:0.016" fill="#342c74" d="M 193.5,255.5 C 191.034,256.634 188.367,256.801 185.5,256C 188.146,255.503 190.813,255.336 193.5,255.5 Z"/></g>
<g><path style="opacity:0.016" fill="#404080" d="M 122.5,256.5 C 122.833,256.5 123.167,256.5 123.5,256.5C 123.315,257.17 122.981,257.17 122.5,256.5 Z"/></g>
<g><path style="opacity:0.004" fill="#2d0c3f" d="M 121.5,257.5 C 121.833,257.5 122.167,257.5 122.5,257.5C 122.5,258.833 121.833,259.5 120.5,259.5C 120.5,259.167 120.5,258.833 120.5,258.5C 121.167,258.5 121.5,258.167 121.5,257.5 Z"/></g>
<g><path style="opacity:0.016" fill="#404080" d="M 119.5,259.5 C 119.833,259.5 120.167,259.5 120.5,259.5C 120.315,260.17 119.981,260.17 119.5,259.5 Z"/></g>
<g><path style="opacity:0.012" fill="#504d63" d="M 117.5,261.5 C 117.5,261.167 117.5,260.833 117.5,260.5C 118.167,260.5 118.833,260.5 119.5,260.5C 119.158,261.338 118.492,261.672 117.5,261.5 Z"/></g>
<g><path style="opacity:0.02" fill="#333366" d="M 186.5,260.5 C 187.833,261.167 187.833,261.167 186.5,260.5 Z"/></g>
<g><path style="opacity:0.016" fill="#413977" d="M 294.5,263.5 C 294.343,262.127 294.51,260.793 295,259.5C 295.765,261.066 295.598,262.399 294.5,263.5 Z"/></g>
<g><path style="opacity:0.008" fill="#14067c" d="M 117.5,261.5 C 116.399,262.598 115.066,262.765 113.5,262C 114.793,261.51 116.127,261.343 117.5,261.5 Z"/></g>
<g><path style="opacity:0.004" fill="#1e1d33" d="M 191.5,263.5 C 190.833,263.5 190.167,263.5 189.5,263.5C 188.939,260.813 189.606,260.813 191.5,263.5 Z"/></g>
<g><path style="opacity:0.016" fill="#24223f" d="M 191.5,264.5 C 191.5,264.167 191.5,263.833 191.5,263.5C 192.791,263.263 193.791,263.596 194.5,264.5C 193.5,264.5 192.5,264.5 191.5,264.5 Z"/></g>
<g><path style="opacity:0.02" fill="#333366" d="M 194.5,264.5 C 195.833,265.167 195.833,265.167 194.5,264.5 Z"/></g>
<g><path style="opacity:0.02" fill="#523768" d="M 293.5,263.5 C 293.833,263.5 294.167,263.5 294.5,263.5C 294.737,264.791 294.404,265.791 293.5,266.5C 293.5,265.5 293.5,264.5 293.5,263.5 Z"/></g>
<g><path style="opacity:0.02" fill="#442273" d="M 292.5,266.5 C 292.833,266.5 293.167,266.5 293.5,266.5C 293.737,267.791 293.404,268.791 292.5,269.5C 292.5,268.5 292.5,267.5 292.5,266.5 Z"/></g>
<g><path style="opacity:0.02" fill="#2b2353" d="M 163.5,267.5 C 164.167,267.5 164.5,267.833 164.5,268.5C 163.503,269.713 162.503,269.546 161.5,268C 162.094,267.536 162.761,267.369 163.5,267.5 Z"/></g>
<g><path style="opacity:0.02" fill="#382c93" d="M 200.5,268.5 C 202.089,267.379 203.756,267.546 205.5,269C 204.552,269.483 203.552,269.649 202.5,269.5C 202.158,268.662 201.492,268.328 200.5,268.5 Z"/></g>
<g><path style="opacity:0.012" fill="#504d63" d="M 291.5,269.5 C 291.833,269.5 292.167,269.5 292.5,269.5C 292.672,270.492 292.338,271.158 291.5,271.5C 291.5,270.833 291.5,270.167 291.5,269.5 Z"/></g>
<g><path style="opacity:0.012" fill="#58558d" d="M 290.5,271.5 C 290.833,271.5 291.167,271.5 291.5,271.5C 291.672,272.492 291.338,273.158 290.5,273.5C 290.5,272.833 290.5,272.167 290.5,271.5 Z"/></g>
<g><path style="opacity:0.008" fill="#6d257f" d="M 289.5,273.5 C 289.833,273.5 290.167,273.5 290.5,273.5C 290.672,274.492 290.338,275.158 289.5,275.5C 289.5,274.833 289.5,274.167 289.5,273.5 Z"/></g>
<g><path style="opacity:0.02" fill="#333366" d="M 288.5,275.5 C 288.833,275.5 289.167,275.5 289.5,275.5C 289.315,276.17 288.981,276.17 288.5,275.5 Z"/></g>
<g><path style="opacity:0.016" fill="#494183" d="M 253.5,278.5 C 254.601,277.402 255.934,277.235 257.5,278C 256.207,278.49 254.873,278.657 253.5,278.5 Z"/></g>
<g><path style="opacity:0.012" fill="#664563" d="M 287.5,276.5 C 287.833,276.5 288.167,276.5 288.5,276.5C 288.672,277.492 288.338,278.158 287.5,278.5C 287.5,277.833 287.5,277.167 287.5,276.5 Z"/></g>
<g><path style="opacity:0.02" fill="#333366" d="M 286.5,278.5 C 286.833,278.5 287.167,278.5 287.5,278.5C 287.315,279.17 286.981,279.17 286.5,278.5 Z"/></g>
<g><path style="opacity:0.02" fill="#252344" d="M 186.5,280.5 C 186.5,280.833 186.5,281.167 186.5,281.5C 183.833,281.167 183.833,280.833 186.5,280.5 Z"/></g>
<g><path style="opacity:0.004" fill="#1b1241" d="M 285.5,279.5 C 285.833,279.5 286.167,279.5 286.5,279.5C 285.968,282.46 285.301,282.793 284.5,280.5C 285.167,280.5 285.5,280.167 285.5,279.5 Z"/></g>
<g><path style="opacity:0.02" fill="#382d96" d="M 186.5,281.5 C 187.239,281.369 187.906,281.536 188.5,282C 187.563,282.692 186.897,282.525 186.5,281.5 Z"/></g>
<g><path style="opacity:0.016" fill="#302b68" d="M 191.5,282.5 C 191.842,283.338 192.508,283.672 193.5,283.5C 193.5,283.833 193.5,284.167 193.5,284.5C 191.897,284.688 190.563,284.188 189.5,283C 190.094,282.536 190.761,282.369 191.5,282.5 Z"/></g>
<g><path style="opacity:0.016" fill="#4a4671" d="M 193.5,284.5 C 194.167,284.5 194.833,284.5 195.5,284.5C 195.5,284.833 195.5,285.167 195.5,285.5C 194.508,285.672 193.842,285.338 193.5,284.5 Z"/></g>
<g><path style="opacity:0.02" fill="#2c256e" d="M 195.5,285.5 C 196.239,285.369 196.906,285.536 197.5,286C 196.563,286.692 195.897,286.525 195.5,285.5 Z"/></g>
<g><path style="opacity:0.02" fill="#333366" d="M 277.5,287.5 C 278.833,288.167 278.833,288.167 277.5,287.5 Z"/></g>
<g><path style="opacity:0.016" fill="#404080" d="M 276.5,288.5 C 276.833,288.5 277.167,288.5 277.5,288.5C 277.315,289.17 276.981,289.17 276.5,288.5 Z"/></g>
<g><path style="opacity:0.008" fill="#241980" d="M 274.5,290.5 C 274.5,290.167 274.5,289.833 274.5,289.5C 275.167,289.5 275.833,289.5 276.5,289.5C 276.158,290.338 275.492,290.672 274.5,290.5 Z"/></g>
<g><path style="opacity:0.004" fill="#1c1a2f" d="M 272.5,290.5 C 273.167,290.5 273.833,290.5 274.5,290.5C 273.779,292.382 272.779,292.715 271.5,291.5C 272.167,291.5 272.5,291.167 272.5,290.5 Z"/></g>
<g><path style="opacity:0.016" fill="#4b2880" d="M 263.5,295.5 C 263.5,295.167 263.5,294.833 263.5,294.5C 267.5,294.833 267.5,295.167 263.5,295.5 Z"/></g>
<g><path style="opacity:0.02" fill="#3f256a" d="M 230.5,295.5 C 230.5,295.833 230.5,296.167 230.5,296.5C 223.833,296.167 223.833,295.833 230.5,295.5 Z"/></g>
<g><path style="opacity:0.02" fill="#2c2475" d="M 259.5,296.5 C 259.5,296.167 259.5,295.833 259.5,295.5C 260.833,295.5 262.167,295.5 263.5,295.5C 262.432,296.434 261.099,296.768 259.5,296.5 Z"/></g>
<g><path style="opacity:0.016" fill="#4f3d7f" d="M 230.5,296.5 C 232.857,296.337 235.19,296.503 237.5,297C 234.961,297.796 232.628,297.629 230.5,296.5 Z"/></g>
<g><path style="opacity:0.016" fill="#493b8d" d="M 253.5,297.5 C 253.5,297.167 253.5,296.833 253.5,296.5C 255.5,296.5 257.5,296.5 259.5,296.5C 257.735,297.461 255.735,297.795 253.5,297.5 Z"/></g>
<g><path style="opacity:0.012" fill="#3f315e" d="M 253.5,297.5 C 248.684,298.65 243.684,298.816 238.5,298C 243.489,297.501 248.489,297.334 253.5,297.5 Z"/></g>
</svg>
