<svg width="57" height="38" viewBox="0 0 57 38" fill="none" xmlns="http://www.w3.org/2000/svg">
<g clip-path="url(#clip0_33_1473)">
<path d="M18.1243 19.6323C18.4091 19.8181 18.395 20.2457 18.1028 20.4192C14.0816 22.8125 9.1489 23.5658 6.35707 23.6608C3.0883 23.7728 -0.326919 22.1984 0.0250821 19.1043C0.344839 16.2937 3.56189 15.0827 6.76013 15.2787C10.256 15.4932 13.8499 16.8374 18.1236 19.6316L18.1243 19.6323Z" fill="#3E3172"/>
<path d="M55.1964 2.89443C52.2037 -0.374521 47.9992 -0.754282 44.1648 1.14862C38.5214 3.94492 32.0322 12.0504 27.3702 16.1594C22.5812 20.3819 16.6798 24.269 9.56659 25.3679C9.03388 25.4485 9.02985 26.2286 9.56256 26.3092C24.2425 28.5638 39.7097 25.6746 46.5408 22.099C46.6483 22.0423 46.7517 21.9856 46.8545 21.9255C46.9976 22.8066 47.4107 23.5374 48.0825 23.9623C49.6678 24.9561 52.0962 23.8817 53.5029 21.5621C54.6792 19.6265 54.7705 17.4408 53.8569 16.1881C57.6839 11.2908 57.8747 5.81982 55.1964 2.89443ZM50.6936 19.7159C50.5149 20.108 50.0575 20.2774 49.6685 20.108L41.1876 16.3705C40.0348 18.2898 38.1358 19.2795 36.6734 18.6087C35.0323 17.8574 34.5634 15.2913 35.6321 12.883C36.6969 10.4746 38.8989 9.13316 40.54 9.88449C41.9587 10.5354 42.4988 12.5353 41.9346 14.6158L50.3194 18.6443C50.7131 18.8341 50.8797 19.315 50.6929 19.7152L50.6936 19.7159Z" fill="url(#paint0_linear_33_1473)"/>
<path d="M20.0439 28.7722C18.7992 28.6923 17.676 29.8555 17.2528 31.5104L9.2676 30.8356C8.93441 28.4191 7.53783 26.5811 5.75364 26.4656C3.58117 26.3256 1.6586 28.7927 1.46043 31.9763C1.26226 35.1592 2.86306 37.8537 5.03553 37.993C6.87278 38.1112 8.52598 36.3633 9.11377 33.8969L17.1386 33.7945C17.3898 35.416 18.3404 36.6393 19.5482 36.7171C21.0455 36.8134 22.3702 35.1127 22.5073 32.9188C22.6436 30.725 21.5406 28.8678 20.0433 28.7715L20.0439 28.7722Z" fill="#3E3172"/>
</g>
<defs>
<linearGradient id="paint0_linear_33_1473" x1="66.1293" y1="1.41842" x2="14.9052" y2="31.0972" gradientUnits="userSpaceOnUse">
<stop stop-color="#03E7E7"/>
<stop offset="1" stop-color="#3E3172"/>
</linearGradient>
<clipPath id="clip0_33_1473">
<rect width="57" height="38" fill="white"/>
</clipPath>
</defs>
</svg>
